<svg width="101" height="100" viewBox="0 0 101 100" fill="none" xmlns="http://www.w3.org/2000/svg">
<g filter="url(#filter0_d_81_471)">
<rect x="2" width="97.6758" height="97.6758" rx="48.8379" fill="#F5F5F5"/>
<rect x="3.5" y="1.5" width="94.6758" height="94.6758" rx="47.3379" stroke="#FFC408" stroke-width="3"/>
</g>
<mask id="mask0_81_471" style="mask-type:alpha" maskUnits="userSpaceOnUse" x="15" y="10" width="79" height="77">
<path d="M28.1012 83.0602L78.8283 85.673L92.512 54.6523L85.1639 34.6126L73.0841 11.9633L47.9205 14.4864L25.1788 22.48L16.6079 31.9196L17.3912 48.1562L22.5658 73.207L28.1012 83.0602Z" fill="#F5F5F5" stroke="black" stroke-width="1.91241"/>
</mask>
<g mask="url(#mask0_81_471)">
<path fill-rule="evenodd" clip-rule="evenodd" d="M27.0379 66.677C30.7727 62.8131 31.5099 60.1564 31.1157 51.9846C30.6802 42.9571 31.2491 41.4151 37.101 35.7565C44.1583 28.9293 49.3266 27.0391 45.2607 32.7705C43.9092 34.6795 42.0898 36.8121 41.2218 37.5126C40.3538 38.2131 40.7046 39.3737 42.0048 40.0921C43.4369 40.8846 47.3624 38.1564 51.9974 33.1481C59.1453 25.4224 64.1623 22.6186 64.3376 26.2518C64.3794 27.119 62.3512 29.9624 59.8309 32.5692C56.7745 35.7303 55.9151 37.918 57.2506 39.1307C58.5842 40.3415 60.6662 39.4848 63.4964 36.5567C67.7783 32.1264 72.2063 30.6089 72.347 33.5239C72.3888 34.3911 70.3605 37.2345 67.8403 39.8413C64.7838 43.0024 63.9244 45.1902 65.26 46.4028C66.5935 47.6136 68.6755 46.7569 71.5058 43.8288C75.7876 39.3986 80.2157 37.8811 80.3563 40.796C80.3982 41.6632 78.3699 44.5067 75.8496 47.1135C70.284 52.8731 73.0996 57.5775 78.7443 51.9499C85.1235 45.5919 85.6506 52.1931 79.3376 59.3673C71.2767 68.529 74.345 72.6372 82.6391 63.7859C88.7808 57.2288 90.6551 48.019 86.3333 45.6274C85.2514 45.0286 84.3029 43.2268 84.2254 41.6203C84.0786 38.5774 63.1656 18.9829 60.2162 19.1252C59.2879 19.17 57.3005 20.5582 55.8006 22.2102C54.3007 23.8621 50.1815 25.3532 46.6496 25.5236C41.6048 25.767 38.5818 27.6762 32.5808 34.4123C25.5972 42.2507 24.9788 43.839 25.4128 52.8341C25.6739 58.2476 25.0537 63.2498 24.0344 63.95C23.0151 64.6501 22.2482 66.6113 22.33 68.3076C22.449 70.7755 23.3925 70.4485 27.0379 66.677ZM19.4267 -31.5594C20.5086 -30.9606 21.5284 -27.6821 21.6929 -24.2725C21.9134 -19.7014 23.8215 -16.4639 28.9601 -11.9444C37.1901 -4.70203 40.8963 -6.26128 33.0735 -13.6745C29.5805 -16.9849 27.6013 -20.8623 27.4131 -24.7629C27.2367 -28.419 25.1814 -32.7637 22.1509 -35.8915C17.3977 -40.7953 17.1831 -40.8386 17.3188 -36.8359C17.3955 -34.5324 18.3448 -32.1581 19.4267 -31.5594ZM35.9307 -54.8985C39.7924 -51.6059 43.2349 -50.9716 56.3423 -51.1349C73.1196 -51.345 78.8699 -48.2354 64.8232 -46.5487L56.4265 -45.5387L72.1451 -31.1828C85.1179 -19.3329 87.2864 -16.5714 84.5584 -15.3714C82.1718 -14.32 78.616 -16.2718 71.7827 -22.383C66.5743 -27.0389 61.7252 -30.2015 61.0052 -29.4086C60.2853 -28.6156 65.7716 -22.407 73.1988 -15.6122C83.843 -5.87286 86.2286 -2.73881 84.476 -0.80856C82.7234 1.1217 79.3423 -0.980195 68.5075 -10.741C60.9492 -17.5524 54.3081 -22.3 53.7498 -21.2909C53.1934 -20.2838 57.6482 -15.0554 63.6499 -9.67186C74.3262 -0.100632 77.2633 4.90038 72.3484 5.13749C70.9998 5.20255 65.0393 0.791589 59.1048 -4.66601C53.1686 -10.1216 47.543 -14.0586 46.6016 -13.412C45.6601 -12.7653 48.7669 -8.65135 53.5046 -4.26756C60.2244 1.95056 61.6345 4.23179 59.9255 6.11398C58.2147 7.99819 55.9848 6.97805 49.7722 1.47068C39.3834 -7.73723 36.8802 -4.97427 47.0473 4.47792C54.4501 11.3619 62.1266 13.5993 64.3772 9.53128C64.9197 8.55162 67.1604 8.12761 69.3577 8.59025C72.9072 9.33804 76.4813 8.05894 86.1712 2.58088C87.7089 1.71213 88.88 -1.47671 88.7761 -4.50256C88.6704 -7.52831 89.1882 -12.0738 89.9259 -14.6022C91.0806 -18.5676 89.5197 -20.7994 78.5944 -30.8086C68.6968 -39.8755 66.7667 -42.459 69.7829 -42.6046C77.5019 -42.9769 80.2411 -50.0554 74.6344 -55.1478C72.2837 -57.2821 67.5118 -57.812 55.7698 -57.2456C46.7767 -56.8117 39.0978 -57.3526 37.8224 -58.5088C36.5989 -59.6215 34.6259 -60.1563 33.4399 -59.697C32.1506 -59.1963 33.1532 -57.2669 35.9307 -54.8985ZM42.888 86.9733C44.5842 86.8915 46.4625 85.9393 47.0613 84.8573C47.6601 83.7754 51.8726 82.7106 56.4207 82.4912C65.8876 82.0345 74.9415 75.7542 71.1677 72.2621C69.5625 70.7772 68.3619 71.0534 66.6744 73.3002C65.2674 75.1717 61.2464 76.5145 56.3429 76.751C50.2475 77.0451 47.2887 78.3404 44.0578 82.1303C40.6547 86.1218 40.42 87.0924 42.888 86.9733ZM41.1009 -15.4748C42.1258 -14.9077 43.4269 -15.2826 43.9939 -16.3074C44.561 -17.3323 44.1862 -18.6334 43.1613 -19.2005C42.1364 -19.7676 40.8353 -19.3927 40.2682 -18.3678C39.7012 -17.3429 40.076 -16.0418 41.1009 -15.4748ZM52.9717 46.2796C54.6087 46.2006 55.3771 45.3019 54.677 44.2826C53.9769 43.2634 52.5963 42.4684 51.6069 42.5161C50.6174 42.5639 49.8509 43.4624 49.9015 44.513C49.9522 45.5636 51.3346 46.3585 52.9717 46.2796ZM48.373 -23.4841C49.3979 -22.9171 50.699 -23.2919 51.2661 -24.3168C51.8331 -25.3417 51.4583 -26.6428 50.4334 -27.2099C49.4085 -27.7769 48.1074 -27.4021 47.5404 -26.3772C46.9733 -25.3523 47.3481 -24.0512 48.373 -23.4841ZM60.981 53.5517C62.6181 53.4727 63.3865 52.5741 62.6864 51.5548C61.9862 50.5355 60.6057 49.7405 59.6162 49.7883C58.6268 49.836 57.8602 50.7346 57.9109 51.7852C57.9616 52.8358 59.344 53.6307 60.981 53.5517ZM55.6452 -31.4935C56.67 -30.9264 57.9711 -31.3013 58.5382 -32.3262C59.1053 -33.351 58.7304 -34.6521 57.7055 -35.2192C56.6807 -35.7863 55.3796 -35.4114 54.8125 -34.3865C54.2454 -33.3617 54.6203 -32.0606 55.6452 -31.4935ZM68.9904 60.8238C70.6274 60.7448 71.3959 59.8462 70.6957 58.8269C69.9956 57.8076 68.6151 57.0127 67.6256 57.0604C66.6361 57.1081 65.8696 58.0067 65.9203 59.0573C65.9709 60.1079 67.3534 60.9028 68.9904 60.8238ZM89.3468 42.1314C90.7582 45.1937 99.7865 44.6165 113.851 40.5663C120.887 38.5382 125.902 37.9459 127.082 38.9994C129.63 41.2755 141.615 40.594 141.498 38.1795C141.448 37.1289 138.919 36.3893 135.88 36.5359C132.602 36.694 129.823 35.5951 129.049 33.8365C126.973 29.1194 126.838 15.9112 128.865 15.8134C131.352 15.6934 134.974 22.0073 135.209 26.8687C135.446 31.7856 136.366 31.7623 140.945 26.7184C142.945 24.5158 145.871 22.6515 147.447 22.5754C149.023 22.4994 150.266 21.4802 150.209 20.3112C150.148 19.039 147.846 18.6274 144.489 19.2871C138.289 20.5053 135.08 16.825 138.445 12.351C139.522 10.9147 140.168 8.19349 139.88 6.30234C138.32 -3.89629 139.201 -5.74624 145.768 -6.06306C149.732 -6.25428 153.54 -4.9848 155.8 -2.71774C159.518 1.01257 166.559 2.03034 166.404 -1.18641C166.357 -2.16634 164.687 -3.39923 162.695 -3.92731C160.702 -4.4553 157.455 -6.51197 155.477 -8.49585C152.557 -11.4242 149.398 -11.9821 138.68 -11.465C121.303 -10.6267 118.295 -8.72393 119.144 0.894436C119.51 5.03534 119.431 8.83396 118.971 9.33673C118.509 9.83768 112.253 9.22238 105.068 7.96837C91.0345 5.51881 86.3869 7.05072 86.723 14.0172C86.9513 18.7506 90.3051 20.6413 102.468 22.8958L113.094 24.8665L101.842 28.0094C88.6877 31.6844 85.957 34.7704 89.3468 42.1314ZM106.988 31.0964C113.586 29.346 120.059 27.8294 121.369 27.7298C125.013 27.4506 124.464 32.8706 120.721 34.1349C110.804 37.4833 95.4365 40.4897 93.554 39.449C89.7476 37.3427 94.432 34.4305 106.988 31.0964ZM108.62 12.7789C120.397 14.5926 123.181 15.6836 123.319 18.545C123.438 20.9958 122.454 21.8321 120.101 21.2832C118.238 20.8484 111.506 19.7276 105.142 18.792C91.2547 16.7509 89.8905 16.1351 92.2636 12.9783C93.701 11.0632 97.2009 11.0227 108.62 12.7789ZM129.38 5.25807C132.356 5.11449 135.202 6.05319 135.703 7.34629C136.322 8.94006 134.364 9.80416 129.61 10.0335C124.856 10.2629 122.824 9.59122 123.287 7.94529C123.661 6.60998 126.404 5.40164 129.38 5.25807ZM129.031 -5.25561C133.658 -5.47881 135.657 -4.79982 135.196 -3.15972C133.919 1.40128 122.501 1.58066 122.282 -2.95603C122.23 -4.0391 125.266 -5.07398 129.031 -5.25561ZM150.809 39.6449C152.727 39.5524 156.211 37.2304 158.552 34.4848C160.893 31.7393 163.947 29.438 165.339 29.3708C166.732 29.3036 167.81 27.9592 167.734 26.3833C167.513 21.8046 163.004 23.2724 157.366 29.7554C154.498 33.0529 151.024 35.8053 149.645 35.8718C148.266 35.9384 147.178 36.8524 147.229 37.903C147.28 38.9536 148.891 39.7375 150.809 39.6449Z" fill="#FFC408"/>
</g>
<defs>
<filter id="filter0_d_81_471" x="0.938306" y="0" width="99.7992" height="99.7992" filterUnits="userSpaceOnUse" color-interpolation-filters="sRGB">
<feFlood flood-opacity="0" result="BackgroundImageFix"/>
<feColorMatrix in="SourceAlpha" type="matrix" values="0 0 0 0 0 0 0 0 0 0 0 0 0 0 0 0 0 0 127 0" result="hardAlpha"/>
<feOffset dy="1.06169"/>
<feGaussianBlur stdDeviation="0.530847"/>
<feComposite in2="hardAlpha" operator="out"/>
<feColorMatrix type="matrix" values="0 0 0 0 0 0 0 0 0 0 0 0 0 0 0 0 0 0 0.25 0"/>
<feBlend mode="normal" in2="BackgroundImageFix" result="effect1_dropShadow_81_471"/>
<feBlend mode="normal" in="SourceGraphic" in2="effect1_dropShadow_81_471" result="shape"/>
</filter>
</defs>
</svg>
