<svg width="101" height="101" viewBox="0 0 101 101" fill="none" xmlns="http://www.w3.org/2000/svg">
<g filter="url(#filter0_d_81_442)">
<rect x="2" y="0.675781" width="97.6758" height="97.6758" rx="48.8379" fill="#FFC408"/>
<rect x="3.5" y="2.17578" width="94.6758" height="94.6758" rx="47.3379" stroke="#F5F5F5" stroke-width="3"/>
</g>
<mask id="mask0_81_442" style="mask-type:alpha" maskUnits="userSpaceOnUse" x="15" y="11" width="79" height="77">
<path d="M28.1012 83.736L78.8283 86.3488L92.512 55.3281L85.1639 35.2883L73.0841 12.6391L47.9205 15.1622L25.1788 23.1558L16.6079 32.5954L17.3912 48.832L22.5658 73.8828L28.1012 83.736Z" fill="#F5F5F5" stroke="black" stroke-width="1.91241"/>
</mask>
<g mask="url(#mask0_81_442)">
<path fill-rule="evenodd" clip-rule="evenodd" d="M27.0379 67.3528C30.7727 63.4889 31.5099 60.8322 31.1157 52.6604C30.6802 43.6328 31.2491 42.0909 37.101 36.4323C44.1583 29.6051 49.3266 27.7149 45.2607 33.4463C43.9092 35.3552 42.0898 37.4878 41.2218 38.1884C40.3538 38.8889 40.7046 40.0494 42.0048 40.7679C43.4369 41.5604 47.3624 38.8322 51.9974 33.8239C59.1453 26.0982 64.1623 23.2944 64.3376 26.9275C64.3794 27.7948 62.3512 30.6382 59.8309 33.245C56.7745 36.4061 55.9151 38.5938 57.2506 39.8064C58.5842 41.0173 60.6662 40.1605 63.4964 37.2325C67.7783 32.8022 72.2063 31.2847 72.347 34.1997C72.3888 35.0669 70.3605 37.9103 67.8403 40.5171C64.7838 43.6782 63.9244 45.866 65.26 47.0786C66.5935 48.2894 68.6755 47.4327 71.5058 44.5046C75.7876 40.0743 80.2157 38.5569 80.3563 41.4718C80.3982 42.339 78.3699 45.1825 75.8496 47.7892C70.284 53.5489 73.0996 58.2533 78.7443 52.6257C85.1235 46.2677 85.6506 52.8688 79.3376 60.0431C71.2767 69.2048 74.345 73.313 82.6391 64.4617C88.7808 57.9046 90.6551 48.6947 86.3333 46.3032C85.2514 45.7044 84.3029 43.9025 84.2254 42.2961C84.0786 39.2531 63.1656 19.6587 60.2162 19.801C59.2879 19.8458 57.3005 21.234 55.8006 22.886C54.3007 24.5379 50.1815 26.029 46.6496 26.1994C41.6048 26.4428 38.5818 28.352 32.5808 35.088C25.5972 42.9265 24.9788 44.5148 25.4128 53.5099C25.6739 58.9234 25.0537 63.9256 24.0344 64.6257C23.0151 65.3259 22.2482 67.2871 22.33 68.9833C22.449 71.4513 23.3925 71.1243 27.0379 67.3528ZM19.4267 -30.8836C20.5086 -30.2848 21.5284 -27.0064 21.6929 -23.5967C21.9134 -19.0256 23.8215 -15.7881 28.9601 -11.2686C37.1901 -4.02625 40.8963 -5.5855 33.0735 -12.9987C29.5805 -16.3091 27.6013 -20.1865 27.4131 -24.0871C27.2367 -27.7432 25.1814 -32.0879 22.1509 -35.2157C17.3977 -40.1195 17.1831 -40.1628 17.3188 -36.1601C17.3955 -33.8567 18.3448 -31.4824 19.4267 -30.8836ZM35.9307 -54.2227C39.7924 -50.9301 43.2349 -50.2958 56.3423 -50.4591C73.1196 -50.6692 78.8699 -47.5596 64.8232 -45.873L56.4265 -44.8629L72.1451 -30.5071C85.1179 -18.6572 87.2864 -15.8956 84.5584 -14.6956C82.1718 -13.6442 78.616 -15.596 71.7827 -21.7072C66.5743 -26.3631 61.7252 -29.5257 61.0052 -28.7328C60.2853 -27.9399 65.7716 -21.7312 73.1988 -14.9364C83.843 -5.19708 86.2286 -2.06303 84.476 -0.132779C82.7234 1.79748 79.3423 -0.304414 68.5075 -10.0652C60.9492 -16.8766 54.3081 -21.6242 53.7498 -20.6151C53.1934 -19.608 57.6482 -14.3796 63.6499 -8.99608C74.3262 0.575149 77.2633 5.57616 72.3484 5.81327C70.9998 5.87833 65.0393 1.46737 59.1048 -3.99023C53.1686 -9.44583 47.543 -13.3828 46.6016 -12.7362C45.6601 -12.0896 48.7669 -7.97557 53.5046 -3.59178C60.2244 2.62634 61.6345 4.90757 59.9255 6.78977C58.2147 8.67397 55.9848 7.65383 49.7722 2.14646C39.3834 -7.06145 36.8802 -4.29849 47.0473 5.1537C54.4501 12.0377 62.1266 14.2751 64.3772 10.2071C64.9197 9.2274 67.1604 8.80339 69.3577 9.26603C72.9072 10.0138 76.4813 8.73472 86.1712 3.25666C87.7089 2.38791 88.88 -0.800925 88.7761 -3.82678C88.6704 -6.85253 89.1882 -11.398 89.9259 -13.9264C91.0806 -17.8918 89.5197 -20.1236 78.5944 -30.1328C68.6968 -39.1997 66.7667 -41.7833 69.7829 -41.9288C77.5019 -42.3012 80.2411 -49.3796 74.6344 -54.472C72.2837 -56.6064 67.5118 -57.1363 55.7698 -56.5698C46.7767 -56.1359 39.0978 -56.6768 37.8224 -57.833C36.5989 -58.9457 34.6259 -59.4805 33.4399 -59.0212C32.1506 -58.5205 33.1532 -56.5911 35.9307 -54.2227ZM42.888 87.6491C44.5842 87.5672 46.4625 86.615 47.0613 85.5331C47.6601 84.4512 51.8726 83.3864 56.4207 83.1669C65.8876 82.7102 74.9415 76.43 71.1677 72.9379C69.5625 71.453 68.3619 71.7292 66.6744 73.976C65.2674 75.8475 61.2464 77.1902 56.3429 77.4268C50.2475 77.7209 47.2887 79.0162 44.0578 82.8061C40.6547 86.7976 40.42 87.7681 42.888 87.6491ZM41.1009 -14.799C42.1258 -14.2319 43.4269 -14.6068 43.9939 -15.6317C44.561 -16.6565 44.1862 -17.9576 43.1613 -18.5247C42.1364 -19.0918 40.8353 -18.7169 40.2682 -17.692C39.7012 -16.6672 40.076 -15.3661 41.1009 -14.799ZM52.9717 46.9553C54.6087 46.8764 55.3771 45.9777 54.677 44.9584C53.9769 43.9392 52.5963 43.1442 51.6069 43.1919C50.6174 43.2396 49.8509 44.1382 49.9015 45.1888C49.9522 46.2394 51.3346 47.0343 52.9717 46.9553ZM48.373 -22.8084C49.3979 -22.2413 50.699 -22.6161 51.2661 -23.641C51.8331 -24.6659 51.4583 -25.967 50.4334 -26.5341C49.4085 -27.1011 48.1074 -26.7263 47.5404 -25.7014C46.9733 -24.6765 47.3481 -23.3754 48.373 -22.8084ZM60.981 54.2275C62.6181 54.1485 63.3865 53.2498 62.6864 52.2306C61.9862 51.2113 60.6057 50.4163 59.6162 50.464C58.6268 50.5118 57.8602 51.4103 57.9109 52.4609C57.9616 53.5115 59.344 54.3064 60.981 54.2275ZM55.6452 -30.8177C56.67 -30.2506 57.9711 -30.6255 58.5382 -31.6504C59.1053 -32.6753 58.7304 -33.9764 57.7055 -34.5434C56.6807 -35.1105 55.3796 -34.7356 54.8125 -33.7108C54.2454 -32.6859 54.6203 -31.3848 55.6452 -30.8177ZM68.9904 61.4996C70.6274 61.4206 71.3959 60.522 70.6957 59.5027C69.9956 58.4834 68.6151 57.6884 67.6256 57.7362C66.6361 57.7839 65.8696 58.6825 65.9203 59.7331C65.9709 60.7837 67.3534 61.5786 68.9904 61.4996ZM89.3468 42.8072C90.7582 45.8695 99.7865 45.2923 113.851 41.2421C120.887 39.2139 125.902 38.6216 127.082 39.6752C129.63 41.9513 141.615 41.2697 141.498 38.8553C141.448 37.8047 138.919 37.0651 135.88 37.2117C132.602 37.3698 129.823 36.2709 129.049 34.5123C126.973 29.7952 126.838 16.5869 128.865 16.4892C131.352 16.3692 134.974 22.6831 135.209 27.5445C135.446 32.4613 136.366 32.438 140.945 27.3941C142.945 25.1916 145.871 23.3273 147.447 23.2512C149.023 23.1752 150.266 22.156 150.209 20.987C150.148 19.7148 147.846 19.3031 144.489 19.9629C138.289 21.181 135.08 17.5008 138.445 13.0268C139.522 11.5905 140.168 8.86927 139.88 6.97812C138.32 -3.22051 139.201 -5.07046 145.768 -5.38728C149.732 -5.5785 153.54 -4.30901 155.8 -2.04196C159.518 1.68835 166.559 2.70612 166.404 -0.510633C166.357 -1.49056 164.687 -2.72344 162.695 -3.25153C160.702 -3.77952 157.455 -5.83619 155.477 -7.82007C152.557 -10.7484 149.398 -11.3063 138.68 -10.7892C121.303 -9.9509 118.295 -8.04815 119.144 1.57022C119.51 5.71112 119.431 9.50974 118.971 10.0125C118.509 10.5135 112.253 9.89817 105.068 8.64416C91.0345 6.19459 86.3869 7.7265 86.723 14.693C86.9513 19.4264 90.3051 21.3171 102.468 23.5716L113.094 25.5423L101.842 28.6852C88.6877 32.3602 85.957 35.4462 89.3468 42.8072ZM106.988 31.7722C113.586 30.0218 120.059 28.5052 121.369 28.4056C125.013 28.1264 124.464 33.5464 120.721 34.8107C110.804 38.1591 95.4365 41.1655 93.554 40.1248C89.7476 38.0185 94.432 35.1063 106.988 31.7722ZM108.62 13.4547C120.397 15.2683 123.181 16.3594 123.319 19.2208C123.438 21.6716 122.454 22.5079 120.101 21.9589C118.238 21.5242 111.506 20.4034 105.142 19.4678C91.2547 17.4267 89.8905 16.8109 92.2636 13.6541C93.701 11.739 97.2009 11.6984 108.62 13.4547ZM129.38 5.93385C132.356 5.79027 135.202 6.72897 135.703 8.02208C136.322 9.61584 134.364 10.4799 129.61 10.7093C124.856 10.9387 122.824 10.267 123.287 8.62107C123.661 7.28576 126.404 6.07742 129.38 5.93385ZM129.031 -4.57983C133.658 -4.80303 135.657 -4.12404 135.196 -2.48394C133.919 2.07706 122.501 2.25645 122.282 -2.28025C122.23 -3.36332 125.266 -4.3982 129.031 -4.57983ZM150.809 40.3207C152.727 40.2282 156.211 37.9062 158.552 35.1606C160.893 32.415 163.947 30.1137 165.339 30.0466C166.732 29.9794 167.81 28.635 167.734 27.0591C167.513 22.4804 163.004 23.9481 157.366 30.4312C154.498 33.7287 151.024 36.4811 149.645 36.5476C148.266 36.6141 147.178 37.5282 147.229 38.5788C147.28 39.6294 148.891 40.4132 150.809 40.3207Z" fill="#F5F5F5"/>
</g>
<defs>
<filter id="filter0_d_81_442" x="0.938306" y="0.675781" width="99.7992" height="99.7992" filterUnits="userSpaceOnUse" color-interpolation-filters="sRGB">
<feFlood flood-opacity="0" result="BackgroundImageFix"/>
<feColorMatrix in="SourceAlpha" type="matrix" values="0 0 0 0 0 0 0 0 0 0 0 0 0 0 0 0 0 0 127 0" result="hardAlpha"/>
<feOffset dy="1.06169"/>
<feGaussianBlur stdDeviation="0.530847"/>
<feComposite in2="hardAlpha" operator="out"/>
<feColorMatrix type="matrix" values="0 0 0 0 0 0 0 0 0 0 0 0 0 0 0 0 0 0 0.25 0"/>
<feBlend mode="normal" in2="BackgroundImageFix" result="effect1_dropShadow_81_442"/>
<feBlend mode="normal" in="SourceGraphic" in2="effect1_dropShadow_81_442" result="shape"/>
</filter>
</defs>
</svg>
