<svg width="101" height="100" viewBox="0 0 101 100" fill="none" xmlns="http://www.w3.org/2000/svg">
<g filter="url(#filter0_d_86_1117)">
<rect x="2" width="97.6758" height="97.6758" rx="48.8379" fill="#1E88A8"/>
<rect x="3.5" y="1.5" width="94.6758" height="94.6758" rx="47.3379" stroke="#F5F5F5" stroke-width="3"/>
</g>
<mask id="mask0_86_1117" style="mask-type:alpha" maskUnits="userSpaceOnUse" x="24" y="7" width="65" height="84">
<path d="M25.0918 18.1735L26.7936 87.0971L76.1463 89.6498L86.3572 73.4825L88.059 51.3589L71.0408 37.7444V22.4281L63.3826 7.96265L32.75 11.3663L25.0918 18.1735Z" fill="#F5F5F5" stroke="black" stroke-width="1.70182"/>
</mask>
<g mask="url(#mask0_86_1117)">
<path fill-rule="evenodd" clip-rule="evenodd" d="M12.3284 -42.8673C15.6027 -39.382 17.9324 -38.6128 25.2128 -38.6128C33.2556 -38.6128 34.6017 -38.041 39.3804 -32.5969C45.1462 -26.0313 46.6046 -21.3564 41.6847 -25.2161C40.0458 -26.4993 38.2283 -28.2079 37.6429 -29.0094C37.0574 -29.811 36.0108 -29.5489 35.3165 -28.424C34.5507 -27.1851 36.8073 -23.5789 41.0601 -19.2444C47.6206 -12.5597 49.8976 -7.9801 46.6608 -7.9801C45.8882 -7.9801 43.4478 -9.90485 41.2388 -12.2568C38.5602 -15.109 36.6524 -15.9667 35.5173 -14.8316C34.3839 -13.6982 35.0561 -11.8109 37.5374 -9.16967C41.2916 -5.17381 42.4505 -1.17284 39.8535 -1.17284C39.0809 -1.17284 36.6405 -3.09759 34.4315 -5.4495C31.7529 -8.30174 29.8452 -9.15945 28.71 -8.02435C27.5766 -6.89093 28.2488 -5.00362 30.7301 -2.3624C34.4843 1.63346 35.6432 5.63443 33.0463 5.63443C32.2736 5.63443 29.8332 3.70967 27.6243 1.35776C22.7435 -3.83618 18.4413 -1.53532 23.2013 3.72329C28.579 9.66603 22.689 9.85152 16.5829 3.93261C8.78519 -3.62515 5.00205 -1.07413 12.5139 6.67764C18.0788 12.4179 26.1845 14.4788 28.4956 10.7399C29.0742 9.80387 30.7165 9.03806 32.1477 9.03806C34.8587 9.03806 53.1719 -8.71018 53.1719 -11.3378C53.1719 -12.1649 52.0232 -13.9909 50.6192 -15.3949C49.2152 -16.7989 48.0665 -20.5242 48.0665 -23.6708C48.0665 -28.1653 46.4991 -30.9342 40.7691 -36.557C34.1014 -43.1005 32.7161 -43.7182 24.7023 -43.7182C19.8793 -43.7182 15.4597 -44.484 14.8811 -45.42C14.3025 -46.356 12.5921 -47.1219 11.0809 -47.1219C8.88219 -47.1219 9.13236 -46.2692 12.3284 -42.8673ZM99.9719 -45.42C99.3932 -44.484 96.4355 -43.7182 93.3978 -43.7182C89.3253 -43.7182 86.3658 -42.1611 82.1283 -37.7874C75.3381 -30.7827 76.5651 -27.4216 83.4898 -34.057C86.582 -37.0199 90.1132 -38.6128 93.5883 -38.6128C96.8456 -38.6128 100.796 -40.2533 103.706 -42.8129C108.268 -46.8274 108.316 -47.0163 104.752 -47.0674C102.702 -47.098 100.55 -46.356 99.9719 -45.42ZM120.009 -29.7497C116.917 -26.4584 116.205 -23.4258 115.789 -11.7683C115.256 3.15318 112.245 8.13099 111.348 -4.42671L110.811 -11.9334L97.3766 1.42243C86.2876 12.4451 83.7399 14.2541 82.7903 11.778C81.9581 9.61157 83.8455 6.53468 89.5704 0.722984C93.9321 -3.70684 96.9511 -7.88139 96.2772 -8.55531C95.6033 -9.22923 89.8495 -4.61901 83.4915 1.69132C74.3783 10.7348 71.4903 12.7208 69.8497 11.0802C68.2092 9.43969 70.2224 6.52448 79.3629 -2.68745C85.7413 -9.11351 90.246 -14.8129 89.373 -15.3524C88.5016 -15.8901 83.6634 -12.1547 78.6209 -7.05091C69.6557 2.02828 65.0846 4.42443 65.0846 0.0456619C65.0846 -1.15582 69.2609 -6.26467 74.3663 -11.3054C79.4701 -16.3479 83.2107 -21.1794 82.6763 -22.0439C82.1419 -22.9084 78.352 -20.3234 74.2523 -16.3003C68.4372 -10.5941 66.3491 -9.43856 64.7494 -11.0383C63.148 -12.6397 64.1504 -14.578 69.312 -19.8639C77.9419 -28.7031 75.5934 -31.0465 66.7558 -22.4149C60.3196 -16.1301 58.0017 -9.40282 61.521 -7.2279C62.3685 -6.70374 62.6493 -4.69389 62.1439 -2.76063C61.327 0.362198 62.3107 3.59395 66.7643 12.4417C67.4706 13.8457 70.2548 15.0233 72.9487 15.0608C75.6427 15.0965 79.6607 15.7517 81.8765 16.5158C85.3516 17.7122 87.4023 16.4205 96.7673 7.13883C105.251 -1.26984 107.63 -2.87465 107.63 -0.187485C107.63 6.68955 113.804 9.42777 118.571 4.66269C120.569 2.66476 121.245 -1.55404 121.245 -12.0151C121.245 -20.0273 122.055 -26.8294 123.137 -27.9135C124.178 -28.9533 124.738 -30.684 124.381 -31.7579C123.991 -32.9253 122.233 -32.1169 120.009 -29.7497ZM-6.3916 -29.6493C-6.3916 -28.1381 -5.62578 -26.4278 -4.68979 -25.8492C-3.75379 -25.2705 -2.98797 -21.4806 -2.98797 -17.4286C-2.98797 -8.99438 2.20597 -0.677608 5.47175 -3.88213C6.86043 -5.24528 6.66643 -6.32423 4.74167 -7.92054C3.13856 -9.25135 2.11748 -12.883 2.11748 -17.2516C2.11748 -22.6821 1.09298 -25.3675 -2.13706 -28.4019C-5.53899 -31.5979 -6.3916 -31.8481 -6.3916 -29.6493ZM84.7457 -26.8447C84.1977 -25.9581 84.4751 -24.7855 85.3618 -24.2375C86.2484 -23.6896 87.421 -23.967 87.969 -24.8536C88.5169 -25.7402 88.2395 -26.9128 87.3529 -27.4608C86.4662 -28.0088 85.2937 -27.7314 84.7457 -26.8447ZM29.3465 -18.9415C29.3465 -17.483 30.1123 -16.7615 31.0483 -17.3401C31.9843 -17.9187 32.7502 -19.1117 32.7502 -19.9932C32.7502 -20.8748 31.9843 -21.5946 31.0483 -21.5946C30.1123 -21.5946 29.3465 -20.3999 29.3465 -18.9415ZM91.553 -20.0375C91.005 -19.1508 91.2824 -17.9783 92.169 -17.4303C93.0557 -16.8823 94.2282 -17.1597 94.7762 -18.0463C95.3242 -18.933 95.0468 -20.1055 94.1602 -20.6535C93.2735 -21.2015 92.101 -20.9241 91.553 -20.0375ZM22.5393 -12.1342C22.5393 -10.6758 23.3051 -9.9542 24.2411 -10.5328C25.1771 -11.1114 25.9429 -12.3044 25.9429 -13.186C25.9429 -14.0675 25.1771 -14.7874 24.2411 -14.7874C23.3051 -14.7874 22.5393 -13.5927 22.5393 -12.1342ZM98.3602 -13.2302C97.8123 -12.3436 98.0897 -11.171 98.9763 -10.623C99.8629 -10.075 101.035 -10.3524 101.583 -11.2391C102.131 -12.1257 101.854 -13.2983 100.967 -13.8463C100.081 -14.3942 98.9082 -14.1168 98.3602 -13.2302ZM15.732 -5.32697C15.732 -3.86851 16.4978 -3.14694 17.4338 -3.72556C18.3698 -4.30418 19.1356 -5.49715 19.1356 -6.37869C19.1356 -7.26023 18.3698 -7.9801 17.4338 -7.9801C16.4978 -7.9801 15.732 -6.78542 15.732 -5.32697ZM31.4738 13.5683C28.6913 14.6915 28.8173 22.7411 31.8142 35.4162C33.3152 41.7572 33.6266 46.2397 32.6395 47.2438C30.5072 49.4102 30.5991 60.0925 32.7502 60.0925C33.6861 60.0925 34.452 57.8767 34.452 55.1692C34.452 52.2488 35.5479 49.8255 37.1442 49.2128C41.426 47.5706 53.1719 48.0164 53.1719 49.8221C53.1719 52.0378 47.4045 54.9871 43.0734 54.9871C38.6929 54.9871 38.6742 55.8056 42.961 60.0925C44.833 61.9645 46.3647 64.6449 46.3647 66.0489C46.3647 67.4529 47.2173 68.6016 48.2588 68.6016C49.3922 68.6016 49.8568 66.573 49.4143 63.5608C48.5975 57.9976 52.0062 55.3036 55.8387 58.486C57.0691 59.5054 59.4601 60.1963 61.1535 60.021C70.2854 59.0714 71.8919 59.9342 71.8919 65.7851C71.8919 69.3164 70.6002 72.6468 68.4883 74.5579C65.0132 77.7029 63.8066 83.9179 66.6724 83.9179C67.5455 83.9179 68.7129 82.4867 69.2677 80.7389C69.8225 78.9895 71.7898 76.1917 73.638 74.5188C76.366 72.0495 76.9974 69.2653 76.9974 59.7164C76.9974 44.235 75.4351 41.4798 66.8494 41.8218C63.1531 41.9699 59.7801 41.7367 59.3529 41.3062C58.9275 40.8739 59.7426 35.3396 61.1654 29.0072C63.9444 16.6384 62.7821 12.4417 56.5756 12.4417C52.3585 12.4417 50.5341 15.3416 48.0086 26.0562L45.8014 35.4162L43.4903 25.2802C40.7878 13.4304 38.1619 10.8709 31.4738 13.5683ZM40.5257 29.7219C41.7987 35.6613 42.8691 41.4798 42.9015 42.6489C42.9934 45.8994 38.1994 45.1795 37.2361 41.798C34.6851 32.8396 32.6719 19.0515 33.6776 17.4229C35.713 14.1299 38.1007 18.4185 40.5257 29.7219ZM56.7372 31.9581C54.6202 42.3477 53.531 44.7762 50.9817 44.7762C48.7983 44.7762 48.0971 43.8657 48.6859 41.798C49.1522 40.1609 50.4371 34.2249 51.5416 28.6089C53.9514 16.3525 54.5572 15.1663 57.2614 17.411C58.9019 18.7707 58.7879 21.8834 56.7372 31.9581ZM62.5319 50.7325C62.5319 53.384 61.5755 55.8737 60.4046 56.2634C58.9615 56.745 58.2774 54.9684 58.2774 50.7325C58.2774 46.4967 58.9615 44.72 60.4046 45.2016C61.5755 45.5913 62.5319 48.0811 62.5319 50.7325ZM71.8919 50.8738C71.8919 54.9956 71.2027 56.7433 69.7646 56.2634C65.7654 54.9326 66.0955 44.7762 70.1373 44.7762C71.1023 44.7762 71.8919 47.5195 71.8919 50.8738ZM31.0483 68.3055C31.0483 70.0141 32.9629 73.2101 35.3029 75.4089C37.6429 77.6076 39.5574 80.4207 39.5574 81.6613C39.5574 82.9019 40.7061 83.9179 42.1101 83.9179C46.1894 83.9179 45.0781 79.8472 39.5574 74.5579C36.7494 71.8674 34.452 68.6612 34.452 67.4324C34.452 66.2037 33.6861 65.198 32.7502 65.198C31.8142 65.198 31.0483 66.5968 31.0483 68.3055Z" fill="#F5F5F5"/>
</g>
<defs>
<filter id="filter0_d_86_1117" x="0.938306" y="0" width="99.7992" height="99.7992" filterUnits="userSpaceOnUse" color-interpolation-filters="sRGB">
<feFlood flood-opacity="0" result="BackgroundImageFix"/>
<feColorMatrix in="SourceAlpha" type="matrix" values="0 0 0 0 0 0 0 0 0 0 0 0 0 0 0 0 0 0 127 0" result="hardAlpha"/>
<feOffset dy="1.06169"/>
<feGaussianBlur stdDeviation="0.530847"/>
<feComposite in2="hardAlpha" operator="out"/>
<feColorMatrix type="matrix" values="0 0 0 0 0 0 0 0 0 0 0 0 0 0 0 0 0 0 0.25 0"/>
<feBlend mode="normal" in2="BackgroundImageFix" result="effect1_dropShadow_86_1117"/>
<feBlend mode="normal" in="SourceGraphic" in2="effect1_dropShadow_86_1117" result="shape"/>
</filter>
</defs>
</svg>
