<svg width="101" height="100" viewBox="0 0 101 100" fill="none" xmlns="http://www.w3.org/2000/svg">
<g filter="url(#filter0_d_81_466)">
<rect x="2" width="97.6758" height="97.6758" rx="48.8379" fill="#F5F5F5"/>
<rect x="3.5" y="1.5" width="94.6758" height="94.6758" rx="47.3379" stroke="#CB1B45" stroke-width="3"/>
</g>
<mask id="mask0_81_466" style="mask-type:alpha" maskUnits="userSpaceOnUse" x="4" y="11" width="89" height="77">
<path d="M86.4956 21.6499L33.1987 12.0253L5.08307 62.0035L18.0567 76.0509L38.986 83.4207L69.0344 86.8159L71.3356 74.4703L87.2903 70.817L91.9309 40.3472L86.4956 21.6499Z" fill="#CB1B45" stroke="black" stroke-width="1.70182"/>
</mask>
<g mask="url(#mask0_81_466)">
<path fill-rule="evenodd" clip-rule="evenodd" d="M98.1826 -21.0269C93.9685 -18.7662 92.6225 -16.7149 90.7382 -9.68261C88.6566 -1.91388 87.7559 -0.761605 81.2605 2.44522C73.4263 6.3152 68.5332 6.51402 73.5348 2.76068C75.1984 1.50978 77.3192 0.196397 78.245 -0.161621C79.1708 -0.519641 79.1885 -1.59843 78.2816 -2.56025C77.2831 -3.62063 73.2158 -2.37426 67.9283 0.611811C59.7733 5.21863 54.7604 6.23278 55.5982 3.10623C55.7982 2.35993 58.289 0.500847 61.1325 -1.02412C64.5808 -2.87329 65.903 -4.49403 65.1004 -5.88425C64.299 -7.27239 62.302 -7.11155 59.1086 -5.39845C54.2772 -2.80637 50.1126 -2.72245 50.7848 -5.23093C50.9847 -5.97723 53.4755 -7.83631 56.319 -9.36128C59.7673 -11.2104 61.0896 -12.8312 60.2869 -14.2214C59.4855 -15.6095 57.4885 -15.4487 54.2951 -13.7356C49.4637 -11.1435 45.2991 -11.0596 45.9713 -13.5681C46.1713 -14.3144 48.6621 -16.1735 51.5055 -17.6984C57.7857 -21.0686 56.6768 -25.8197 50.3654 -22.583C43.2333 -18.9266 44.5785 -24.6639 51.8761 -29.03C61.1946 -34.6059 59.7096 -38.9204 50.2778 -33.6709C43.2929 -29.7812 39.2043 -22.4851 42.2176 -19.2851C42.972 -18.4839 43.2866 -16.6994 42.9162 -15.317C42.2145 -12.6983 54.6182 9.58447 57.1563 10.2645C57.9552 10.4786 60.0163 9.84164 61.7359 8.84886C63.4554 7.85609 67.351 7.71068 70.3905 8.52509C74.7318 9.68835 77.812 8.89102 84.7262 4.81154C92.7725 0.0646018 93.7277 -1.11358 95.8019 -8.85437C97.0501 -13.513 98.9337 -17.5838 99.9876 -17.9004C101.041 -18.2171 102.224 -19.6709 102.615 -21.1306C103.184 -23.2545 102.296 -23.2335 98.1826 -21.0269ZM77.9645 64.2909C77.2101 63.4898 77.2359 60.4346 78.0222 57.5004C79.0762 53.5667 78.3381 50.3051 75.2102 45.0799C70.2016 36.7081 66.6375 37.0234 71.2545 45.4295C73.3161 49.1832 73.9408 53.0064 73.0414 56.3631C72.1983 59.5094 72.7607 63.7493 74.4798 67.2227C77.1767 72.6688 77.3468 72.7638 78.3185 69.3348C78.8788 67.3619 78.7188 65.0921 77.9645 64.2909ZM57.6421 79.5896C55.2633 75.7509 52.5181 74.2789 41.3658 70.859C27.0906 66.4825 23.0616 62.2862 35.4235 64.6701L42.8136 66.0935L33.3899 49.6604C25.6128 36.0963 24.5248 33.1673 27.1624 32.8909C29.4703 32.6478 31.9539 35.2672 36.0859 42.3012C39.2358 47.6608 42.4868 51.6574 43.3121 51.1809C44.1375 50.7044 41.1736 43.9534 36.7239 36.1788C30.3472 25.0355 29.1763 21.7319 31.1856 20.5718C33.1949 19.4118 35.4897 22.111 42.022 33.3242C46.5782 41.1484 50.9175 46.9747 51.6646 46.2711C52.4095 45.5686 50.0535 39.9284 46.4288 33.7368C39.9793 22.7273 38.8479 17.6918 43.0775 18.8251C44.238 19.136 48.0919 24.4923 51.6395 30.7284C55.1892 36.9633 58.8879 41.8269 59.8613 41.5345C60.8347 41.2421 59.3186 36.9123 56.4937 31.911C52.487 24.8172 51.9113 22.5011 53.8705 21.37C55.8318 20.2376 57.4447 21.7075 61.2145 28.0613C67.519 38.6849 70.3903 37.023 64.3402 26.2525C59.9353 18.409 54.0372 14.4289 51.0255 17.2654C50.2999 17.9484 48.2858 17.6995 46.5493 16.7109C43.7443 15.1136 40.368 15.2273 30.6691 17.2392C29.1302 17.558 27.272 19.9425 26.5386 22.535C25.8068 25.1279 24.134 28.8394 22.8225 30.7819C20.7674 33.829 21.4843 36.1441 28.0259 47.5924C33.9524 57.9632 34.8867 60.6766 32.2911 59.9811C25.6484 58.2012 21.4055 63.4563 24.7745 69.294C26.1872 71.7409 30.0874 73.4854 40.192 76.1929C47.9312 78.2666 54.2919 80.8096 55.0589 82.1357C55.7937 83.4108 57.3205 84.3996 58.4503 84.3323C59.6788 84.258 59.353 82.3508 57.6421 79.5896ZM90.26 -42.53C88.8003 -42.9212 86.9501 -42.6241 86.1489 -41.8698C85.3477 -41.1154 81.4887 -41.3566 77.5748 -42.4053C69.428 -44.5883 60.0503 -41.7239 62.3004 -37.74C63.2577 -36.0458 64.3501 -35.9539 66.3901 -37.3999C68.0905 -38.604 71.8627 -38.6503 76.0824 -37.5197C81.3279 -36.1142 84.187 -36.4087 87.954 -38.7433C91.9215 -41.2022 92.3839 -41.961 90.26 -42.53ZM63.9629 44.776C63.2483 44.0172 62.0439 43.9816 61.2851 44.6962C60.5263 45.4108 60.4908 46.6152 61.2054 47.374C61.92 48.1328 63.1244 48.1684 63.8832 47.4538C64.642 46.7391 64.6775 45.5348 63.9629 44.776ZM70.6674 -10.7811C69.2586 -11.1585 68.3634 -10.6056 68.6801 -9.5517C68.9967 -8.49784 69.9508 -7.44935 70.8023 -7.22119C71.6538 -6.99303 72.5474 -7.54644 72.7896 -8.45055C73.0319 -9.35465 72.0761 -10.4036 70.6674 -10.7811ZM55.6258 49.5894C54.9112 48.8306 53.7068 48.7951 52.948 49.5097C52.1892 50.2243 52.1537 51.4287 52.8683 52.1875C53.5829 52.9463 54.7873 52.9818 55.5461 52.2672C56.3048 51.5526 56.3404 50.3482 55.6258 49.5894ZM65.8539 -19.1182C64.4451 -19.4957 63.55 -18.9427 63.8666 -17.8889C64.1832 -16.835 65.1374 -15.7865 65.9889 -15.5584C66.8404 -15.3302 67.7339 -15.8836 67.9762 -16.7877C68.2184 -17.6918 67.2627 -18.7407 65.8539 -19.1182ZM47.2886 54.4029C46.574 53.6441 45.3696 53.6086 44.6108 54.3232C43.852 55.0378 43.8165 56.2422 44.5311 57.0009C45.2457 57.7597 46.4501 57.7953 47.2089 57.0807C47.9677 56.3661 48.0032 55.1617 47.2886 54.4029ZM61.0404 -27.4554C59.6317 -27.8328 58.7365 -27.2799 59.0531 -26.226C59.3698 -25.1722 60.3239 -24.1237 61.1754 -23.8955C62.0269 -23.6673 62.9205 -24.2208 63.1627 -25.1249C63.405 -26.029 62.4492 -27.0779 61.0404 -27.4554ZM38.7148 -17.1404C38.35 -20.1188 30.5421 -22.0805 17.5232 -22.4663C11.0098 -22.6576 6.59937 -23.517 5.88498 -24.7303C4.34428 -27.3507 -5.9978 -30.0267 -6.55455 -27.9489C-6.7968 -27.0448 -4.85474 -25.7316 -2.23941 -25.0308C0.5814 -24.275 2.63855 -22.5891 2.81717 -20.8887C3.29526 -16.3278 -0.175494 -5.09745 -1.91959 -5.56478C-4.05985 -6.13826 -5.41588 -12.4725 -4.29491 -16.6561C-3.16116 -20.8873 -3.94699 -21.1172 -9.19732 -18.0859C-11.49 -16.7622 -14.4755 -15.9765 -15.8316 -16.3399C-17.1878 -16.7033 -18.5181 -16.177 -18.7876 -15.171C-19.081 -14.0762 -17.2418 -13.1024 -14.2177 -12.7502C-8.63258 -12.0994 -6.91265 -8.10954 -10.9785 -5.2313C-12.2816 -4.30665 -13.5679 -2.17591 -13.8368 -0.494932C-15.2831 8.57163 -16.5323 9.90009 -22.1838 8.38578C-25.5947 7.47182 -28.4774 5.36217 -29.7768 2.82754C-31.9151 -1.34313 -37.6061 -4.11718 -38.3479 -1.34897C-38.5738 -0.505683 -37.4935 0.992416 -35.9489 1.98065C-34.4026 2.96934 -32.2093 5.59373 -31.0718 7.81189C-29.3927 11.0861 -26.8668 12.4165 -17.6433 14.8879C-2.68938 18.8948 0.376323 18.0989 2.26805 9.71727C3.08172 6.10856 4.17992 2.91083 4.70636 2.60966C5.23401 2.31058 10.3687 4.53036 16.1172 7.54356C27.3453 13.4292 31.6998 13.3927 33.3062 7.39762C34.3976 3.32421 32.0687 0.811485 22.3728 -4.4011L13.903 -8.95569L24.2918 -8.56461C36.4373 -8.10807 39.5892 -9.98204 38.7148 -17.1404ZM20.7687 -12.5778C14.7023 -12.8854 8.805 -13.3574 7.66733 -13.6287C4.50383 -14.3813 6.43996 -18.8256 9.95554 -18.8808C19.2689 -19.0263 33.1083 -17.4023 34.4211 -16.0093C37.0751 -13.191 32.3147 -11.9947 20.7687 -12.5778ZM14.4129 2.50256C4.92526 -2.23138 2.86142 -3.91197 3.52123 -6.37442C4.08634 -8.48345 5.14726 -8.92507 6.99212 -7.82114C8.45279 -6.94701 13.8539 -4.16958 18.9927 -1.64921C30.2078 3.85065 31.1968 4.74286 28.3287 6.77393C26.5907 8.00666 23.6136 7.09091 14.4129 2.50256ZM-5.22158 3.24061C-7.78266 2.55437 -9.94004 0.986146 -10.0134 -0.245669C-10.1051 -1.76428 -8.21191 -1.96527 -4.12042 -0.868956C-0.0289399 0.227354 1.51015 1.34802 0.671434 2.61733C-0.00803298 3.64742 -2.6605 3.92685 -5.22158 3.24061ZM-7.78056 12.2451C-11.7619 11.1783 -13.2717 10.0602 -12.436 8.79537C-10.1154 5.27682 -0.390515 8.22441 -1.43661 12.1285C-1.68636 13.0606 -4.54058 13.1133 -7.78056 12.2451ZM-14.0472 -31.7184C-15.6976 -32.1606 -19.2802 -31.1385 -22.0097 -29.4473C-24.7391 -27.7561 -27.9519 -26.6349 -29.1503 -26.956C-30.3486 -27.2771 -31.6273 -26.4305 -31.9907 -25.0743C-33.0465 -21.1341 -28.8268 -21.1539 -22.2889 -25.1175C-18.9633 -27.1335 -15.2717 -28.5228 -14.0848 -28.2048C-12.898 -27.8868 -11.7283 -28.3662 -11.486 -29.2703C-11.2438 -30.1744 -12.3968 -31.2762 -14.0472 -31.7184Z" fill="#CB1B45"/>
</g>
<defs>
<filter id="filter0_d_81_466" x="0.938306" y="0" width="99.7992" height="99.7992" filterUnits="userSpaceOnUse" color-interpolation-filters="sRGB">
<feFlood flood-opacity="0" result="BackgroundImageFix"/>
<feColorMatrix in="SourceAlpha" type="matrix" values="0 0 0 0 0 0 0 0 0 0 0 0 0 0 0 0 0 0 127 0" result="hardAlpha"/>
<feOffset dy="1.06169"/>
<feGaussianBlur stdDeviation="0.530847"/>
<feComposite in2="hardAlpha" operator="out"/>
<feColorMatrix type="matrix" values="0 0 0 0 0 0 0 0 0 0 0 0 0 0 0 0 0 0 0.25 0"/>
<feBlend mode="normal" in2="BackgroundImageFix" result="effect1_dropShadow_81_466"/>
<feBlend mode="normal" in="SourceGraphic" in2="effect1_dropShadow_81_466" result="shape"/>
</filter>
</defs>
</svg>
