<svg width="141" height="141" viewBox="0 0 141 141" fill="none" xmlns="http://www.w3.org/2000/svg">
<g filter="url(#filter0_d_81_576)">
<rect x="4" width="133" height="133" rx="66.5" fill="#1E88A8"/>
</g>
<mask id="mask0_81_576" style="mask-type:alpha" maskUnits="userSpaceOnUse" x="38" y="14" width="75" height="98">
<path d="M39 27.75L40.9583 107.062L97.75 110L109.5 91.3958L111.458 65.9375L91.875 50.2708V32.6458L83.0625 16L47.8125 19.9167L39 27.75Z" fill="#F5F5F5" stroke="black" stroke-width="1.95833"/>
</mask>
<g mask="url(#mask0_81_576)">
<path fill-rule="evenodd" clip-rule="evenodd" d="M24.3122 -42.4916C28.08 -38.481 30.761 -37.5958 39.1387 -37.5958C48.3938 -37.5958 49.9428 -36.9378 55.4418 -30.6731C62.0767 -23.1179 63.755 -17.7383 58.0934 -22.1798C56.2075 -23.6564 54.116 -25.6226 53.4424 -26.5449C52.7687 -27.4673 51.5643 -27.1657 50.7653 -25.8713C49.8841 -24.4456 52.4808 -20.2959 57.3747 -15.308C64.9241 -7.6157 67.5443 -2.34582 63.8196 -2.34582C62.9305 -2.34582 60.1223 -4.5607 57.5803 -7.26711C54.4979 -10.5493 52.3026 -11.5363 50.9964 -10.2301C49.6922 -8.92582 50.4657 -6.75403 53.321 -3.71469C57.641 0.883472 58.9747 5.48751 55.9863 5.48751C55.0972 5.48751 52.2889 3.27264 49.747 0.566219C46.6646 -2.71595 44.4693 -3.70295 43.1631 -2.39674C41.8588 -1.09249 42.6324 1.0793 45.4876 4.11864C49.8077 8.7168 51.1413 13.3208 48.1529 13.3208C47.2638 13.3208 44.4556 11.106 41.9137 8.39955C36.2972 2.42272 31.3465 5.07039 36.824 11.1216C43.0123 17.9601 36.2345 18.1736 29.208 11.3625C20.2349 2.66555 15.8815 5.6011 24.5256 14.5213C30.9294 21.1268 40.2569 23.4983 42.9163 19.1958C43.5822 18.1188 45.472 17.2375 47.1189 17.2375C50.2385 17.2375 71.3122 -3.18595 71.3122 -6.20961C71.3122 -7.16136 69.9903 -9.26265 68.3747 -10.8783C66.759 -12.4939 65.4372 -16.7807 65.4372 -20.4017C65.4372 -25.5736 63.6335 -28.7598 57.0398 -35.2301C49.3671 -42.7599 47.773 -43.4708 38.5512 -43.4708C33.0013 -43.4708 27.9155 -44.3521 27.2497 -45.4291C26.5838 -46.5062 24.6157 -47.3875 22.8767 -47.3875C20.3465 -47.3875 20.6344 -46.4064 24.3122 -42.4916ZM125.166 -45.4291C124.501 -44.3521 121.097 -43.4708 117.601 -43.4708C112.915 -43.4708 109.509 -41.6789 104.633 -36.646C96.8195 -28.5855 98.2314 -24.7178 106.2 -32.3534C109.758 -35.7628 113.822 -37.5958 117.821 -37.5958C121.569 -37.5958 126.114 -39.4836 129.463 -42.429C134.713 -47.0487 134.768 -47.2661 130.667 -47.3248C128.307 -47.3601 125.832 -46.5062 125.166 -45.4291ZM148.224 -27.3968C144.665 -23.6094 143.847 -20.1197 143.367 -6.70507C142.754 10.4656 139.29 16.1937 138.258 1.74318L137.639 -6.89503L122.18 8.47397C109.419 21.1581 106.488 23.2398 105.395 20.3904C104.437 17.8975 106.609 14.3568 113.197 7.66909C118.216 2.57155 121.69 -2.23224 120.915 -3.00774C120.139 -3.78324 113.518 1.52189 106.202 8.78339C95.715 19.19 92.3917 21.4753 90.5038 19.5875C88.616 17.6997 90.9327 14.3451 101.451 3.74459C108.791 -3.65007 113.974 -10.2085 112.97 -10.8293C111.967 -11.4482 106.4 -7.14961 100.597 -1.27657C90.2806 9.17113 85.0205 11.9285 85.0205 6.88968C85.0205 5.50709 89.8262 -0.371822 95.7012 -6.17241C101.574 -11.9749 105.879 -17.5347 105.264 -18.5295C104.649 -19.5243 100.288 -16.5496 95.57 -11.9201C88.8784 -5.35382 86.4755 -4.02412 84.6347 -5.86495C82.7919 -7.70774 83.9454 -9.93828 89.885 -16.0209C99.8157 -26.1924 97.1132 -28.8891 86.9436 -18.9564C79.5372 -11.7243 76.8699 -3.98299 80.9198 -1.48024C81.895 -0.877071 82.2181 1.43572 81.6365 3.66039C80.6965 7.25393 81.8284 10.9728 86.9534 21.1542C87.7661 22.7698 90.9699 24.125 94.07 24.1681C97.17 24.2092 101.794 24.9631 104.343 25.8424C108.342 27.2191 110.702 25.7328 121.479 15.052C131.241 5.37589 133.979 3.52918 133.979 6.62139C133.979 14.535 141.084 17.686 146.569 12.2026C148.868 9.90355 149.646 5.04884 149.646 -6.98903C149.646 -16.2089 150.578 -24.0363 151.823 -25.2838C153.022 -26.4803 153.666 -28.4719 153.255 -29.7077C152.806 -31.0511 150.783 -30.1209 148.224 -27.3968ZM2.77051 -27.2813C2.77051 -25.5423 3.65176 -23.5742 4.72884 -22.9083C5.80592 -22.2425 6.68717 -17.8813 6.68717 -13.2185C6.68717 -3.51299 12.664 6.05739 16.422 2.36985C18.02 0.80122 17.7968 -0.440365 15.5819 -2.27728C13.7372 -3.8087 12.5622 -7.98778 12.5622 -13.0148C12.5622 -19.2639 11.3833 -22.3541 7.66634 -25.8458C3.75163 -29.5236 2.77051 -29.8114 2.77051 -27.2813ZM107.645 -24.0539C107.015 -23.0337 107.334 -21.6844 108.354 -21.0538C109.374 -20.4232 110.724 -20.7424 111.354 -21.7627C111.985 -22.783 111.666 -24.1323 110.645 -24.7629C109.625 -25.3934 108.276 -25.0742 107.645 -24.0539ZM43.8955 -14.9594C43.8955 -13.2812 44.7768 -12.4508 45.8538 -13.1167C46.9309 -13.7825 47.8122 -15.1553 47.8122 -16.1697C47.8122 -17.1841 46.9309 -18.0125 45.8538 -18.0125C44.7768 -18.0125 43.8955 -16.6377 43.8955 -14.9594ZM115.478 -16.2206C114.848 -15.2003 115.167 -13.851 116.187 -13.2204C117.208 -12.5899 118.557 -12.9091 119.188 -13.9294C119.818 -14.9497 119.499 -16.2989 118.479 -16.9295C117.458 -17.5601 116.109 -17.2409 115.478 -16.2206ZM36.0622 -7.12611C36.0622 -5.44782 36.9434 -4.61749 38.0205 -5.28332C39.0976 -5.94915 39.9788 -7.32195 39.9788 -8.33636C39.9788 -9.35078 39.0976 -10.1792 38.0205 -10.1792C36.9434 -10.1792 36.0622 -8.80441 36.0622 -7.12611ZM123.312 -8.38728C122.681 -7.36699 123 -6.0177 124.021 -5.38711C125.041 -4.75653 126.39 -5.07574 127.021 -6.09603C127.651 -7.11632 127.332 -8.46561 126.312 -9.0962C125.292 -9.72678 123.942 -9.40757 123.312 -8.38728ZM28.2288 0.707218C28.2288 2.38551 29.1101 3.21584 30.1872 2.55001C31.2643 1.88418 32.1455 0.511387 32.1455 -0.503029C32.1455 -1.51745 31.2643 -2.34582 30.1872 -2.34582C29.1101 -2.34582 28.2288 -0.971073 28.2288 0.707218ZM46.3434 22.4506C43.1415 23.7431 43.2865 33.006 46.7351 47.5917C48.4623 54.8884 48.8207 60.0467 47.6849 61.2021C45.2311 63.695 45.3368 75.9875 47.8122 75.9875C48.8893 75.9875 49.7705 73.4377 49.7705 70.322C49.7705 66.9615 51.0317 64.1729 52.8686 63.4679C57.7958 61.5781 71.3122 62.0912 71.3122 64.169C71.3122 66.7187 64.6754 70.1125 59.6914 70.1125C54.6507 70.1125 54.6291 71.0545 59.5622 75.9875C61.7163 78.1417 63.4788 81.226 63.4788 82.8417C63.4788 84.4573 64.46 85.7792 65.6585 85.7792C66.9627 85.7792 67.4973 83.4448 66.9882 79.9786C66.0482 73.5768 69.9707 70.4767 74.3809 74.1388C75.7968 75.3119 78.5482 76.107 80.4967 75.9053C91.0052 74.8125 92.8538 75.8054 92.8538 82.5381C92.8538 86.6017 91.3675 90.4341 88.9372 92.6333C84.9383 96.2523 83.5498 103.404 86.8476 103.404C87.8522 103.404 89.1957 101.757 89.8341 99.746C90.4725 97.7328 92.7363 94.5133 94.8631 92.5883C98.0023 89.7467 98.7288 86.5429 98.7288 75.5547C98.7288 57.7398 96.9311 54.5692 87.0513 54.9628C82.7978 55.1332 78.9164 54.8649 78.4248 54.3695C77.9353 53.872 78.8733 47.5035 80.5105 40.2166C83.7084 25.9834 82.3709 21.1542 75.2288 21.1542C70.3761 21.1542 68.2768 24.4912 65.3706 36.8208L62.8306 47.5917L60.1712 35.9278C57.0614 22.292 54.0397 19.3466 46.3434 22.4506ZM56.7598 41.0391C58.2246 47.8737 59.4564 54.5692 59.4936 55.9146C59.5994 59.655 54.0828 58.8266 52.9743 54.9354C50.0388 44.6268 47.7221 28.7603 48.8795 26.8862C51.2216 23.0968 53.9692 28.0318 56.7598 41.0391ZM75.4149 43.6123C72.9787 55.568 71.7254 58.3625 68.7918 58.3625C66.2793 58.3625 65.4724 57.3148 66.15 54.9354C66.6866 53.0515 68.1651 46.2208 69.4361 39.7583C72.2091 25.6544 72.9063 24.2895 76.018 26.8725C77.9059 28.4372 77.7747 32.019 75.4149 43.6123ZM82.083 65.2167C82.083 68.2678 80.9824 71.1328 79.6351 71.5813C77.9744 72.1355 77.1872 70.091 77.1872 65.2167C77.1872 60.3424 77.9744 58.2979 79.6351 58.8521C80.9824 59.3005 82.083 62.1656 82.083 65.2167ZM92.8538 65.3792C92.8538 70.1223 92.0607 72.1335 90.4059 71.5813C85.8038 70.0498 86.1838 58.3625 90.8348 58.3625C91.9452 58.3625 92.8538 61.5193 92.8538 65.3792ZM45.8538 85.4384C45.8538 87.4046 48.057 91.0823 50.7497 93.6125C53.4424 96.1427 55.6455 99.3798 55.6455 100.807C55.6455 102.235 56.9674 103.404 58.583 103.404C63.2771 103.404 61.9983 98.7198 55.6455 92.6333C52.4143 89.5372 49.7705 85.8477 49.7705 84.4338C49.7705 83.0199 48.8893 81.8625 47.8122 81.8625C46.7351 81.8625 45.8538 83.4722 45.8538 85.4384Z" fill="#F5F5F5"/>
</g>
<path d="M50.1857 122.098C49.5417 122.098 48.963 121.986 48.4497 121.762C47.9457 121.529 47.549 121.211 47.2597 120.81C46.9703 120.399 46.821 119.928 46.8117 119.396H48.1697C48.2163 119.853 48.403 120.241 48.7297 120.558C49.0657 120.866 49.551 121.02 50.1857 121.02C50.7923 121.02 51.2683 120.871 51.6137 120.572C51.9683 120.264 52.1457 119.872 52.1457 119.396C52.1457 119.023 52.043 118.719 51.8377 118.486C51.6323 118.253 51.3757 118.075 51.0677 117.954C50.7597 117.833 50.3443 117.702 49.8217 117.562C49.1777 117.394 48.6597 117.226 48.2677 117.058C47.885 116.89 47.5537 116.629 47.2737 116.274C47.003 115.91 46.8677 115.425 46.8677 114.818C46.8677 114.286 47.003 113.815 47.2737 113.404C47.5443 112.993 47.9223 112.676 48.4077 112.452C48.9023 112.228 49.467 112.116 50.1017 112.116C51.0163 112.116 51.763 112.345 52.3417 112.802C52.9297 113.259 53.261 113.866 53.3357 114.622H51.9357C51.889 114.249 51.693 113.922 51.3477 113.642C51.0023 113.353 50.545 113.208 49.9757 113.208C49.4437 113.208 49.0097 113.348 48.6737 113.628C48.3377 113.899 48.1697 114.281 48.1697 114.776C48.1697 115.131 48.2677 115.42 48.4637 115.644C48.669 115.868 48.9163 116.041 49.2057 116.162C49.5043 116.274 49.9197 116.405 50.4517 116.554C51.0957 116.731 51.6137 116.909 52.0057 117.086C52.3977 117.254 52.7337 117.52 53.0137 117.884C53.2937 118.239 53.4337 118.724 53.4337 119.34C53.4337 119.816 53.3077 120.264 53.0557 120.684C52.8037 121.104 52.4303 121.445 51.9357 121.706C51.441 121.967 50.8577 122.098 50.1857 122.098ZM54.8325 118.15C54.8325 117.357 54.9911 116.666 55.3085 116.078C55.6258 115.481 56.0645 115.019 56.6245 114.692C57.1938 114.365 57.8425 114.202 58.5705 114.202C59.5131 114.202 60.2878 114.431 60.8945 114.888C61.5105 115.345 61.9165 115.98 62.1125 116.792H60.7405C60.6098 116.325 60.3531 115.957 59.9705 115.686C59.5971 115.415 59.1305 115.28 58.5705 115.28C57.8425 115.28 57.2545 115.532 56.8065 116.036C56.3585 116.531 56.1345 117.235 56.1345 118.15C56.1345 119.074 56.3585 119.788 56.8065 120.292C57.2545 120.796 57.8425 121.048 58.5705 121.048C59.1305 121.048 59.5971 120.917 59.9705 120.656C60.3438 120.395 60.6005 120.021 60.7405 119.536H62.1125C61.9071 120.32 61.4965 120.95 60.8805 121.426C60.2645 121.893 59.4945 122.126 58.5705 122.126C57.8425 122.126 57.1938 121.963 56.6245 121.636C56.0645 121.309 55.6258 120.847 55.3085 120.25C54.9911 119.653 54.8325 118.953 54.8325 118.15ZM64.4704 113.082C64.2277 113.082 64.0224 112.998 63.8544 112.83C63.6864 112.662 63.6024 112.457 63.6024 112.214C63.6024 111.971 63.6864 111.766 63.8544 111.598C64.0224 111.43 64.2277 111.346 64.4704 111.346C64.7037 111.346 64.8997 111.43 65.0584 111.598C65.2264 111.766 65.3104 111.971 65.3104 112.214C65.3104 112.457 65.2264 112.662 65.0584 112.83C64.8997 112.998 64.7037 113.082 64.4704 113.082ZM65.0864 114.328V122H63.8124V114.328H65.0864ZM69.9737 122.126C69.3857 122.126 68.8584 122.028 68.3917 121.832C67.925 121.627 67.5564 121.347 67.2857 120.992C67.015 120.628 66.8657 120.213 66.8377 119.746H68.1537C68.191 120.129 68.3684 120.441 68.6857 120.684C69.0124 120.927 69.437 121.048 69.9597 121.048C70.445 121.048 70.8277 120.941 71.1077 120.726C71.3877 120.511 71.5277 120.241 71.5277 119.914C71.5277 119.578 71.3784 119.331 71.0797 119.172C70.781 119.004 70.319 118.841 69.6937 118.682C69.1244 118.533 68.6577 118.383 68.2937 118.234C67.939 118.075 67.631 117.847 67.3697 117.548C67.1177 117.24 66.9917 116.839 66.9917 116.344C66.9917 115.952 67.1084 115.593 67.3417 115.266C67.575 114.939 67.9064 114.683 68.3357 114.496C68.765 114.3 69.255 114.202 69.8057 114.202C70.655 114.202 71.341 114.417 71.8637 114.846C72.3864 115.275 72.6664 115.863 72.7037 116.61H71.4297C71.4017 116.209 71.2384 115.887 70.9397 115.644C70.6504 115.401 70.2584 115.28 69.7637 115.28C69.3064 115.28 68.9424 115.378 68.6717 115.574C68.401 115.77 68.2657 116.027 68.2657 116.344C68.2657 116.596 68.345 116.806 68.5037 116.974C68.6717 117.133 68.877 117.263 69.1197 117.366C69.3717 117.459 69.717 117.567 70.1557 117.688C70.7064 117.837 71.1544 117.987 71.4997 118.136C71.845 118.276 72.139 118.491 72.3817 118.78C72.6337 119.069 72.7644 119.447 72.7737 119.914C72.7737 120.334 72.657 120.712 72.4237 121.048C72.1904 121.384 71.859 121.65 71.4297 121.846C71.0097 122.033 70.5244 122.126 69.9737 122.126ZM77.2881 122.126C76.7001 122.126 76.1728 122.028 75.7061 121.832C75.2395 121.627 74.8708 121.347 74.6001 120.992C74.3295 120.628 74.1801 120.213 74.1521 119.746H75.4681C75.5055 120.129 75.6828 120.441 76.0001 120.684C76.3268 120.927 76.7515 121.048 77.2741 121.048C77.7595 121.048 78.1421 120.941 78.4221 120.726C78.7021 120.511 78.8421 120.241 78.8421 119.914C78.8421 119.578 78.6928 119.331 78.3941 119.172C78.0955 119.004 77.6335 118.841 77.0081 118.682C76.4388 118.533 75.9721 118.383 75.6081 118.234C75.2535 118.075 74.9455 117.847 74.6841 117.548C74.4321 117.24 74.3061 116.839 74.3061 116.344C74.3061 115.952 74.4228 115.593 74.6561 115.266C74.8895 114.939 75.2208 114.683 75.6501 114.496C76.0795 114.3 76.5695 114.202 77.1201 114.202C77.9695 114.202 78.6555 114.417 79.1781 114.846C79.7008 115.275 79.9808 115.863 80.0181 116.61H78.7441C78.7161 116.209 78.5528 115.887 78.2541 115.644C77.9648 115.401 77.5728 115.28 77.0781 115.28C76.6208 115.28 76.2568 115.378 75.9861 115.574C75.7155 115.77 75.5801 116.027 75.5801 116.344C75.5801 116.596 75.6595 116.806 75.8181 116.974C75.9861 117.133 76.1915 117.263 76.4341 117.366C76.6861 117.459 77.0315 117.567 77.4701 117.688C78.0208 117.837 78.4688 117.987 78.8141 118.136C79.1595 118.276 79.4535 118.491 79.6961 118.78C79.9481 119.069 80.0788 119.447 80.0881 119.914C80.0881 120.334 79.9715 120.712 79.7381 121.048C79.5048 121.384 79.1735 121.65 78.7441 121.846C78.3241 122.033 77.8388 122.126 77.2881 122.126ZM85.2326 122.126C84.5139 122.126 83.8606 121.963 83.2726 121.636C82.6939 121.309 82.2366 120.847 81.9006 120.25C81.5739 119.643 81.4106 118.943 81.4106 118.15C81.4106 117.366 81.5786 116.675 81.9146 116.078C82.2599 115.471 82.7266 115.009 83.3146 114.692C83.9026 114.365 84.5606 114.202 85.2886 114.202C86.0166 114.202 86.6746 114.365 87.2626 114.692C87.8506 115.009 88.3126 115.467 88.6486 116.064C88.9939 116.661 89.1666 117.357 89.1666 118.15C89.1666 118.943 88.9893 119.643 88.6346 120.25C88.2893 120.847 87.8179 121.309 87.2206 121.636C86.6233 121.963 85.9606 122.126 85.2326 122.126ZM85.2326 121.006C85.6899 121.006 86.1193 120.899 86.5206 120.684C86.9219 120.469 87.2439 120.147 87.4866 119.718C87.7386 119.289 87.8646 118.766 87.8646 118.15C87.8646 117.534 87.7433 117.011 87.5006 116.582C87.2579 116.153 86.9406 115.835 86.5486 115.63C86.1566 115.415 85.7319 115.308 85.2746 115.308C84.8079 115.308 84.3786 115.415 83.9866 115.63C83.6039 115.835 83.2959 116.153 83.0626 116.582C82.8293 117.011 82.7126 117.534 82.7126 118.15C82.7126 118.775 82.8246 119.303 83.0486 119.732C83.2819 120.161 83.5899 120.483 83.9726 120.698C84.3553 120.903 84.7753 121.006 85.2326 121.006ZM92.1157 115.574C92.3397 115.135 92.657 114.795 93.0677 114.552C93.4877 114.309 93.9963 114.188 94.5937 114.188V115.504H94.2577C92.8297 115.504 92.1157 116.279 92.1157 117.828V122H90.8417V114.328H92.1157V115.574Z" fill="white"/>
<defs>
<filter id="filter0_d_81_576" x="0" y="0" width="141" height="141" filterUnits="userSpaceOnUse" color-interpolation-filters="sRGB">
<feFlood flood-opacity="0" result="BackgroundImageFix"/>
<feColorMatrix in="SourceAlpha" type="matrix" values="0 0 0 0 0 0 0 0 0 0 0 0 0 0 0 0 0 0 127 0" result="hardAlpha"/>
<feOffset dy="4"/>
<feGaussianBlur stdDeviation="2"/>
<feComposite in2="hardAlpha" operator="out"/>
<feColorMatrix type="matrix" values="0 0 0 0 0 0 0 0 0 0 0 0 0 0 0 0 0 0 0.25 0"/>
<feBlend mode="normal" in2="BackgroundImageFix" result="effect1_dropShadow_81_576"/>
<feBlend mode="normal" in="SourceGraphic" in2="effect1_dropShadow_81_576" result="shape"/>
</filter>
</defs>
</svg>
