<svg width="141" height="141" viewBox="0 0 141 141" fill="none" xmlns="http://www.w3.org/2000/svg">
<g filter="url(#filter0_d_81_586)">
<rect x="4" width="133" height="133" rx="66.5" fill="#FFC408"/>
</g>
<mask id="mask0_81_586" style="mask-type:alpha" maskUnits="userSpaceOnUse" x="21" y="9" width="98" height="96">
<path d="M37.3704 99.7235L100.643 102.983L117.711 64.2897L108.546 39.2937L93.4786 11.0428L62.0914 14.1899L33.7252 24.1605L23.0346 35.9347L24.0116 56.1869L30.466 87.4334L37.3704 99.7235Z" fill="#F5F5F5" stroke="black" stroke-width="2.38539"/>
</mask>
<g mask="url(#mask0_81_586)">
<path fill-rule="evenodd" clip-rule="evenodd" d="M36.0442 79.2885C40.7026 74.469 41.6222 71.1552 41.1305 60.9624C40.5873 49.7021 41.2969 47.7788 48.5961 40.7207C57.3988 32.205 63.8454 29.8473 58.7739 36.9962C57.0881 39.3773 54.8187 42.0373 53.736 42.9111C52.6534 43.7849 53.091 45.2325 54.7128 46.1286C56.4991 47.1171 61.3954 43.7142 67.1767 37.4672C76.0925 27.8308 82.3503 24.3335 82.5689 28.8652C82.6211 29.9469 80.0912 33.4936 76.9476 36.7451C73.1353 40.688 72.0633 43.4168 73.7292 44.9294C75.3926 46.4396 77.9895 45.371 81.5197 41.7188C86.8605 36.1928 92.3838 34.3 92.5592 37.9359C92.6114 39.0176 90.0815 42.5643 86.9379 45.8158C83.1255 49.7587 82.0536 52.4875 83.7194 54.0001C85.3828 55.5103 87.9797 54.4417 91.51 50.7895C96.8508 45.2635 102.374 43.3707 102.549 47.0066C102.602 48.0883 100.072 51.635 96.9281 54.8865C89.9861 62.0706 93.4979 67.9385 100.539 60.9191C108.496 52.9887 109.153 61.2224 101.279 70.171C91.2243 81.5986 95.0513 86.7229 105.397 75.6824C113.057 67.5035 115.395 56.0159 110.005 53.0329C108.655 52.286 107.472 50.0385 107.375 48.0347C107.192 44.2392 81.107 19.7987 77.4283 19.9761C76.2703 20.032 73.7913 21.7636 71.9205 23.8241C70.0497 25.8846 64.9117 27.7445 60.5063 27.957C54.2138 28.2606 50.4431 30.642 42.958 39.044C34.2472 48.8211 33.4758 50.8022 34.0171 62.022C34.3429 68.7743 33.5692 75.0137 32.2979 75.887C31.0265 76.7603 30.0698 79.2066 30.1719 81.3223C30.3204 84.4007 31.4972 83.9929 36.0442 79.2885ZM26.5506 -43.2438C27.9001 -42.497 29.1721 -38.4077 29.3772 -34.1547C29.6523 -28.4531 32.0323 -24.4149 38.4418 -18.7776C48.7073 -9.7441 53.3301 -11.689 43.5726 -20.9357C39.2156 -25.0648 36.7469 -29.9011 36.5122 -34.7664C36.2922 -39.3267 33.7286 -44.746 29.9486 -48.6474C24.0198 -54.764 23.7521 -54.818 23.9213 -49.8253C24.017 -46.9522 25.2011 -43.9907 26.5506 -43.2438ZM47.1364 -72.3552C51.9532 -68.2483 56.2471 -67.4572 72.5962 -67.6608C93.5229 -67.9229 100.695 -64.0442 83.1747 -61.9404L72.7013 -60.6805L92.3074 -42.7742C108.489 -27.9936 111.193 -24.549 107.791 -23.0522C104.814 -21.7408 100.379 -24.1753 91.8554 -31.7979C85.3589 -37.6053 79.3104 -41.5501 78.4124 -40.5611C77.5144 -39.5721 84.3575 -31.8278 93.6217 -23.3526C106.898 -11.2045 109.874 -7.29533 107.688 -4.88768C105.502 -2.48003 101.285 -5.10177 87.7701 -17.2766C78.3425 -25.7726 70.0589 -31.6945 69.3626 -30.4357C68.6685 -29.1795 74.2251 -22.658 81.7112 -15.9431C95.028 -4.00468 98.6914 2.23319 92.561 2.52894C90.8788 2.61009 83.4441 -2.89178 76.042 -9.69916C68.6376 -16.5041 61.6207 -21.4147 60.4464 -20.6082C59.2721 -19.8017 63.1473 -14.6702 69.0567 -9.20217C77.4384 -1.44618 79.1972 1.39924 77.0656 3.74695C74.9317 6.09716 72.1502 4.82472 64.4012 -2.04474C51.443 -13.53 48.3208 -10.0837 61.0023 1.70625C70.236 10.2928 79.8111 13.0836 82.6184 8.00942C83.295 6.78747 86.0899 6.2586 88.8307 6.83565C93.2579 7.76838 97.7161 6.17295 109.802 -0.659962C111.72 -1.74358 113.181 -5.72108 113.052 -9.49529C112.92 -13.2694 113.566 -18.939 114.486 -22.0928C115.926 -27.0389 113.979 -29.8227 100.352 -42.3073C88.0063 -53.6167 85.5988 -56.8392 89.3609 -57.0207C98.9891 -57.4852 102.406 -66.3143 95.4124 -72.6662C92.4803 -75.3284 86.5281 -75.9894 71.8822 -75.2828C60.6648 -74.7416 51.0868 -75.4163 49.4959 -76.8584C47.9698 -78.2464 45.5089 -78.9134 44.0296 -78.3405C42.4214 -77.716 43.6719 -75.3094 47.1364 -72.3552ZM55.8144 104.605C57.9301 104.502 60.2729 103.315 61.0198 101.965C61.7667 100.616 67.021 99.2876 72.6941 99.0139C84.5023 98.4442 95.7954 90.6107 91.0883 86.2549C89.086 84.4028 87.5886 84.7473 85.4837 87.5498C83.7287 89.8841 78.7132 91.559 72.597 91.8541C64.9941 92.2209 61.3035 93.8366 57.2735 98.5637C53.0287 103.542 52.736 104.753 55.8144 104.605ZM53.5853 -23.1812C54.8636 -22.4739 56.4865 -22.9414 57.1938 -24.2198C57.9012 -25.4981 57.4336 -27.121 56.1552 -27.8283C54.8769 -28.5357 53.254 -28.0681 52.5467 -26.7897C51.8394 -25.5114 52.3069 -23.8885 53.5853 -23.1812ZM68.392 53.8463C70.4339 53.7478 71.3924 52.6269 70.5191 51.3556C69.6457 50.0842 67.9238 49.0926 66.6896 49.1521C65.4554 49.2117 64.4993 50.3325 64.5625 51.6429C64.6257 52.9534 66.3501 53.9448 68.392 53.8463ZM62.656 -33.1714C63.9343 -32.4641 65.5572 -32.9317 66.2645 -34.21C66.9718 -35.4884 66.5043 -37.1113 65.2259 -37.8186C63.9476 -38.5259 62.3247 -38.0583 61.6174 -36.78C60.91 -35.5016 61.3776 -33.8787 62.656 -33.1714ZM78.3822 62.917C80.4241 62.8185 81.3826 61.6976 80.5093 60.4262C79.636 59.1549 77.9141 58.1633 76.6799 58.2228C75.4457 58.2824 74.4895 59.4032 74.5528 60.7136C74.616 62.024 76.3403 63.0155 78.3822 62.917ZM71.7267 -43.1617C73.005 -42.4544 74.6279 -42.9219 75.3352 -44.2003C76.0425 -45.4786 75.575 -47.1015 74.2966 -47.8088C73.0183 -48.5162 71.3954 -48.0486 70.688 -46.7702C69.9807 -45.4919 70.4483 -43.869 71.7267 -43.1617ZM88.3725 71.9877C90.4144 71.8892 91.3729 70.7683 90.4996 69.4969C89.6262 68.2256 87.9043 67.234 86.6701 67.2935C85.4359 67.3531 84.4798 68.4739 84.543 69.7843C84.6062 71.0947 86.3306 72.0862 88.3725 71.9877ZM113.763 48.6723C115.524 52.492 126.785 51.772 144.328 46.7201C153.105 44.1903 159.359 43.4515 160.832 44.7656C164.009 47.6047 178.958 46.7546 178.813 43.7429C178.75 42.4325 175.596 41.51 171.805 41.6929C167.717 41.8901 164.25 40.5194 163.284 38.3259C160.696 32.4421 160.527 15.9672 163.055 15.8452C166.157 15.6956 170.676 23.5711 170.968 29.6348C171.264 35.7677 172.411 35.7386 178.124 29.4472C180.618 26.6999 184.267 24.3745 186.233 24.2797C188.198 24.1849 189.749 22.9136 189.679 21.4554C189.602 19.8686 186.731 19.3552 182.543 20.1781C174.81 21.6975 170.808 17.1071 175.005 11.5265C176.349 9.735 177.154 6.34076 176.795 3.9819C174.848 -8.73909 175.948 -11.0466 184.139 -11.4417C189.083 -11.6803 193.833 -10.0968 196.652 -7.26905C201.289 -2.61616 210.072 -1.34666 209.879 -5.35899C209.82 -6.58127 207.737 -8.11909 205.253 -8.77777C202.766 -9.43634 198.716 -12.0017 196.249 -14.4762C192.608 -18.1288 188.667 -18.8246 175.298 -18.1797C153.623 -17.134 149.871 -14.7607 150.93 -2.76351C151.387 2.40154 151.289 7.13963 150.715 7.76675C150.138 8.39161 142.335 7.62413 133.373 6.05998C115.869 3.00458 110.071 4.91536 110.491 13.6048C110.776 19.5089 114.959 21.8672 130.13 24.6793L143.384 27.1374L129.349 31.0576C112.941 35.6415 109.535 39.4908 113.763 48.6723ZM135.768 34.9081C143.997 32.7247 152.071 30.8331 153.706 30.7088C158.25 30.3606 157.566 37.1211 152.897 38.698C140.527 42.8746 121.359 46.6246 119.011 45.3264C114.263 42.6992 120.106 39.0668 135.768 34.9081ZM137.804 12.0602C152.492 14.3225 155.966 15.6833 156.138 19.2525C156.286 22.3094 155.058 23.3525 152.124 22.6678C149.8 22.1255 141.403 20.7276 133.466 19.5606C116.143 17.0146 114.442 16.2465 117.402 12.3089C119.194 9.92025 123.56 9.86965 137.804 12.0602ZM163.697 2.67935C167.409 2.50026 170.96 3.67112 171.584 5.28405C172.356 7.27197 169.915 8.34979 163.985 8.63589C158.054 8.92199 155.521 8.08417 156.097 6.03119C156.564 4.36562 159.985 2.85843 163.697 2.67935ZM163.263 -10.4346C169.034 -10.713 171.527 -9.86607 170.952 -7.82034C169.359 -2.13131 155.117 -1.90755 154.844 -7.56627C154.779 -8.91722 158.567 -10.208 163.263 -10.4346ZM190.427 45.5708C192.819 45.4554 197.164 42.5591 200.084 39.1345C203.005 35.7099 206.814 32.8394 208.551 32.7557C210.288 32.6719 211.632 30.995 211.538 29.0293C211.262 23.3182 205.638 25.149 198.606 33.2354C195.028 37.3485 190.695 40.7816 188.974 40.8646C187.254 40.9476 185.898 42.0877 185.961 43.3981C186.024 44.7085 188.034 45.6862 190.427 45.5708Z" fill="#F5F5F5"/>
</g>
<path d="M60.1252 122L57.8012 118.01H56.2612V122H54.9872V112.242H58.1372C58.8745 112.242 59.4952 112.368 59.9992 112.62C60.5125 112.872 60.8952 113.213 61.1472 113.642C61.3992 114.071 61.5252 114.561 61.5252 115.112C61.5252 115.784 61.3292 116.377 60.9372 116.89C60.5545 117.403 59.9758 117.744 59.2012 117.912L61.6512 122H60.1252ZM56.2612 116.988H58.1372C58.8278 116.988 59.3458 116.82 59.6912 116.484C60.0365 116.139 60.2092 115.681 60.2092 115.112C60.2092 114.533 60.0365 114.085 59.6912 113.768C59.3552 113.451 58.8372 113.292 58.1372 113.292H56.2612V116.988ZM66.8508 122.126C66.1321 122.126 65.4788 121.963 64.8908 121.636C64.3121 121.309 63.8548 120.847 63.5188 120.25C63.1921 119.643 63.0288 118.943 63.0288 118.15C63.0288 117.366 63.1968 116.675 63.5328 116.078C63.8781 115.471 64.3448 115.009 64.9328 114.692C65.5208 114.365 66.1788 114.202 66.9068 114.202C67.6348 114.202 68.2928 114.365 68.8808 114.692C69.4688 115.009 69.9308 115.467 70.2668 116.064C70.6121 116.661 70.7848 117.357 70.7848 118.15C70.7848 118.943 70.6074 119.643 70.2528 120.25C69.9074 120.847 69.4361 121.309 68.8388 121.636C68.2414 121.963 67.5788 122.126 66.8508 122.126ZM66.8508 121.006C67.3081 121.006 67.7374 120.899 68.1388 120.684C68.5401 120.469 68.8621 120.147 69.1048 119.718C69.3568 119.289 69.4828 118.766 69.4828 118.15C69.4828 117.534 69.3614 117.011 69.1188 116.582C68.8761 116.153 68.5588 115.835 68.1668 115.63C67.7748 115.415 67.3501 115.308 66.8928 115.308C66.4261 115.308 65.9968 115.415 65.6048 115.63C65.2221 115.835 64.9141 116.153 64.6808 116.582C64.4474 117.011 64.3308 117.534 64.3308 118.15C64.3308 118.775 64.4428 119.303 64.6668 119.732C64.9001 120.161 65.2081 120.483 65.5908 120.698C65.9734 120.903 66.3934 121.006 66.8508 121.006ZM71.9838 118.15C71.9838 117.357 72.1425 116.666 72.4598 116.078C72.7772 115.481 73.2158 115.019 73.7758 114.692C74.3452 114.365 74.9938 114.202 75.7218 114.202C76.6645 114.202 77.4392 114.431 78.0458 114.888C78.6618 115.345 79.0678 115.98 79.2638 116.792H77.8918C77.7612 116.325 77.5045 115.957 77.1218 115.686C76.7485 115.415 76.2818 115.28 75.7218 115.28C74.9938 115.28 74.4058 115.532 73.9578 116.036C73.5098 116.531 73.2858 117.235 73.2858 118.15C73.2858 119.074 73.5098 119.788 73.9578 120.292C74.4058 120.796 74.9938 121.048 75.7218 121.048C76.2818 121.048 76.7485 120.917 77.1218 120.656C77.4952 120.395 77.7518 120.021 77.8918 119.536H79.2638C79.0585 120.32 78.6478 120.95 78.0318 121.426C77.4158 121.893 76.6458 122.126 75.7218 122.126C74.9938 122.126 74.3452 121.963 73.7758 121.636C73.2158 121.309 72.7772 120.847 72.4598 120.25C72.1425 119.653 71.9838 118.953 71.9838 118.15ZM85.2477 122L82.2377 118.612V122H80.9637V111.64H82.2377V117.73L85.1917 114.328H86.9697L83.3577 118.15L86.9837 122H85.2477Z" fill="white"/>
<defs>
<filter id="filter0_d_81_586" x="0" y="0" width="141" height="141" filterUnits="userSpaceOnUse" color-interpolation-filters="sRGB">
<feFlood flood-opacity="0" result="BackgroundImageFix"/>
<feColorMatrix in="SourceAlpha" type="matrix" values="0 0 0 0 0 0 0 0 0 0 0 0 0 0 0 0 0 0 127 0" result="hardAlpha"/>
<feOffset dy="4"/>
<feGaussianBlur stdDeviation="2"/>
<feComposite in2="hardAlpha" operator="out"/>
<feColorMatrix type="matrix" values="0 0 0 0 0 0 0 0 0 0 0 0 0 0 0 0 0 0 0.25 0"/>
<feBlend mode="normal" in2="BackgroundImageFix" result="effect1_dropShadow_81_586"/>
<feBlend mode="normal" in="SourceGraphic" in2="effect1_dropShadow_81_586" result="shape"/>
</filter>
</defs>
</svg>
