<svg width="141" height="141" viewBox="0 0 141 141" fill="none" xmlns="http://www.w3.org/2000/svg">
<g filter="url(#filter0_d_81_592)">
<rect x="4" width="133" height="133" rx="66.5" fill="#CB1B45"/>
</g>
<mask id="mask0_81_592" style="mask-type:alpha" maskUnits="userSpaceOnUse" x="6" y="12" width="113" height="98">
<path d="M110.33 26.2108L43.2609 14.0992L7.87999 76.9921L24.206 94.6693L50.5435 103.944L88.3567 108.216L91.2525 92.6803L111.33 88.083L117.17 49.7396L110.33 26.2108Z" fill="#F5F5F5" stroke="black" stroke-width="2.14157"/>
</mask>
<g mask="url(#mask0_81_592)">
<path fill-rule="evenodd" clip-rule="evenodd" d="M125.036 -27.4936C119.733 -24.6488 118.04 -22.0674 115.668 -13.218C113.049 -3.44178 111.915 -1.99175 103.742 2.04374C93.883 6.91375 87.7255 7.16393 94.0195 2.44071C96.113 0.866578 98.7819 -0.786195 99.9468 -1.23672C101.112 -1.68726 101.134 -3.04481 99.9929 -4.25518C98.7364 -5.58956 93.6181 -4.02112 86.9642 -0.263436C76.702 5.5338 70.3938 6.81003 71.448 2.87555C71.6997 1.9364 74.8341 -0.403076 78.4123 -2.3221C82.7518 -4.64911 84.4157 -6.68865 83.4056 -8.43811C82.3971 -10.1849 79.8841 -9.98255 75.8655 -7.82677C69.7856 -4.56489 64.5449 -4.45929 65.3907 -7.61597C65.6424 -8.55512 68.7768 -10.8946 72.3551 -12.8136C76.6945 -15.1406 78.3584 -17.1802 77.3483 -18.9296C76.3398 -20.6765 73.8268 -20.4741 69.8082 -18.3183C63.7284 -15.0564 58.4876 -14.9508 59.3335 -18.1075C59.5851 -19.0466 62.7195 -21.3861 66.2978 -23.3051C74.2008 -27.5462 72.8053 -33.525 64.863 -29.4519C55.8879 -24.8506 57.5808 -32.0705 66.7642 -37.5648C78.4905 -44.5816 76.6219 -50.011 64.7528 -43.4049C55.9629 -38.5102 50.8178 -29.3287 54.6098 -25.3018C55.5591 -24.2936 55.9551 -22.048 55.4889 -20.3083C54.606 -17.013 70.2148 11.0278 73.4087 11.8836C74.414 12.153 77.0078 11.3514 79.1717 10.1021C81.3355 8.8528 86.2378 8.66981 90.0627 9.69467C95.5258 11.1585 99.402 10.1552 108.103 5.02153C118.228 -0.952042 119.43 -2.43468 122.04 -12.1757C123.611 -18.0381 125.982 -23.1609 127.308 -23.5593C128.634 -23.9578 130.122 -25.7873 130.614 -27.6242C131.33 -30.2969 130.212 -30.2705 125.036 -27.4936ZM99.5939 79.8707C98.6446 78.8625 98.677 75.0178 99.6664 71.3254C100.993 66.3752 100.064 62.2708 96.1278 55.6955C89.825 45.1603 85.3399 45.5571 91.15 56.1353C93.7443 60.859 94.5304 65.6701 93.3986 69.8942C92.3377 73.8535 93.0453 79.1891 95.2087 83.56C98.6025 90.4135 98.8166 90.5329 100.039 86.2179C100.744 83.7352 100.543 80.8788 99.5939 79.8707ZM74.0201 99.1226C71.0265 94.2919 67.572 92.4395 53.5379 88.1359C35.5739 82.6285 30.5038 77.3479 46.0601 80.3478L55.3598 82.139L43.5009 61.4595C33.7143 44.3904 32.3451 40.7045 35.6642 40.3567C38.5686 40.0508 41.6939 43.347 46.8936 52.1986C50.8575 58.9432 54.9485 63.9726 55.9872 63.3729C57.0258 62.7733 53.296 54.2778 47.6964 44.4942C39.6721 30.4714 38.1986 26.3142 40.7271 24.8544C43.2555 23.3945 46.1433 26.7912 54.3636 40.902C60.0972 50.748 65.5578 58.0799 66.4979 57.1944C67.4354 56.3104 64.4706 49.2128 59.9092 41.4212C51.7932 27.5668 50.3694 21.2301 55.6919 22.6562C57.1523 23.0475 62.002 29.7878 66.4664 37.6354C70.9334 45.4815 75.5878 51.6019 76.8127 51.2339C78.0376 50.8659 76.1298 45.4172 72.5749 39.1236C67.5328 30.1967 66.8084 27.2822 69.2739 25.8587C71.742 24.4338 73.7716 26.2835 78.5156 34.2792C86.4491 47.648 90.0625 45.5565 82.449 32.003C76.9059 22.1326 69.4837 17.1241 65.6937 20.6936C64.7806 21.553 62.2461 21.2397 60.0608 19.9957C56.531 17.9857 52.2823 18.1287 40.0771 20.6606C38.1405 21.0618 35.8022 24.0624 34.8793 27.3248C33.9584 30.5878 31.8533 35.2583 30.2029 37.7028C27.6168 41.5372 28.519 44.4506 36.7509 58.8571C44.2088 71.9078 45.3846 75.3224 42.1183 74.4472C33.7591 72.2073 28.4198 78.8204 32.6593 86.1665C34.4371 89.2458 39.3451 91.4411 52.0608 94.8482C61.7998 97.4578 69.8041 100.658 70.7693 102.327C71.694 103.931 73.6154 105.175 75.0371 105.091C76.5831 104.997 76.1731 102.597 74.0201 99.1226ZM115.067 -54.5533C113.23 -55.0455 110.901 -54.6717 109.893 -53.7224C108.885 -52.7732 104.029 -53.0767 99.1034 -54.3964C88.8515 -57.1434 77.0505 -53.5388 79.8821 -48.5255C81.0867 -46.3935 82.4614 -46.2779 85.0286 -48.0976C87.1684 -49.6128 91.9154 -49.6711 97.2255 -48.2483C103.826 -46.4796 107.424 -46.8502 112.165 -49.7881C117.157 -52.8823 117.739 -53.8372 115.067 -54.5533ZM81.9742 55.3129C81.075 54.3581 79.5593 54.3134 78.6045 55.2126C77.6496 56.1119 77.6049 57.6275 78.5042 58.5824C79.4034 59.5372 80.919 59.5819 81.8739 58.6827C82.8288 57.7834 82.8735 56.2678 81.9742 55.3129ZM90.4111 -14.6003C88.6383 -15.0753 87.5118 -14.3794 87.9103 -13.0532C88.3088 -11.7271 89.5094 -10.4076 90.5809 -10.1205C91.6525 -9.8334 92.7769 -10.5298 93.0818 -11.6675C93.3866 -12.8053 92.1839 -14.1253 90.4111 -14.6003ZM71.4827 61.3702C70.5834 60.4153 69.0678 60.3706 68.113 61.2699C67.1581 62.1692 67.1134 63.6848 68.0126 64.6396C68.9119 65.5945 70.4275 65.6392 71.3824 64.74C72.3373 63.8407 72.382 62.3251 71.4827 61.3702ZM84.3538 -25.0918C82.581 -25.5668 81.4545 -24.871 81.853 -23.5448C82.2515 -22.2186 83.4521 -20.8992 84.5237 -20.612C85.5952 -20.3249 86.7196 -21.0213 87.0245 -22.1591C87.3294 -23.2968 86.1266 -24.6168 84.3538 -25.0918ZM60.9912 67.4275C60.0919 66.4726 58.5763 66.4279 57.6214 67.3272C56.6666 68.2264 56.6219 69.742 57.5211 70.6969C58.4204 71.6518 59.936 71.6965 60.8909 70.7973C61.8457 69.898 61.8904 68.3824 60.9912 67.4275ZM78.2966 -35.5833C76.5238 -36.0583 75.3972 -35.3625 75.7957 -34.0363C76.1942 -32.7101 77.3949 -31.3907 78.4664 -31.1036C79.5379 -30.8164 80.6624 -31.5129 80.9672 -32.6506C81.2721 -33.7883 80.0693 -35.1083 78.2966 -35.5833ZM50.2018 -22.6029C49.7428 -26.3509 39.9173 -28.8196 23.5343 -29.305C15.3378 -29.5458 9.78765 -30.6272 8.88866 -32.154C6.94985 -35.4516 -6.06469 -38.8191 -6.7653 -36.2044C-7.07015 -35.0666 -4.62626 -33.4141 -1.33511 -32.5322C2.21461 -31.5811 4.80334 -29.4596 5.02812 -27.3197C5.62975 -21.5803 1.26214 -7.448 -0.932649 -8.03609C-3.62597 -8.75776 -5.3324 -16.7288 -3.92176 -21.9934C-2.49505 -27.318 -3.48394 -27.6073 -10.091 -23.7928C-12.9761 -22.127 -16.733 -21.1383 -18.4396 -21.5955C-20.1462 -22.0528 -21.8202 -21.3906 -22.1594 -20.1246C-22.5286 -18.7469 -20.2141 -17.5215 -16.4086 -17.0783C-9.3803 -16.2593 -7.21593 -11.2384 -12.3325 -7.61644C-13.9723 -6.45285 -15.5909 -3.77151 -15.9293 -1.65617C-17.7493 9.75323 -19.3214 11.425 -26.4332 9.51937C-30.7256 8.36923 -34.3531 5.71444 -35.9883 2.52485C-38.6792 -2.72354 -45.8407 -6.21441 -46.7741 -2.73089C-47.0585 -1.6697 -45.699 0.21552 -43.7553 1.45913C-41.8095 2.70329 -39.0494 6.00583 -37.6179 8.79719C-35.5049 12.9174 -32.3263 14.5917 -20.7194 17.7017C-1.90135 22.744 1.95654 21.7424 4.3371 11.1949C5.36103 6.65369 6.74301 2.62966 7.40549 2.25067C8.06948 1.87431 14.5311 4.66768 21.7649 8.45951C35.8944 15.866 41.3741 15.82 43.3956 8.27585C44.7691 3.14986 41.8384 -0.012164 29.637 -6.57171L18.9786 -12.3032L32.0519 -11.8111C47.3358 -11.2366 51.3022 -13.5948 50.2018 -22.6029ZM27.6184 -16.8613C19.9844 -17.2484 12.5632 -17.8423 11.1316 -18.1838C7.15062 -19.1308 9.58705 -24.7236 14.0111 -24.793C25.7311 -24.9761 43.1466 -22.9325 44.7986 -21.1795C48.1385 -17.633 42.1479 -16.1275 27.6184 -16.8613ZM19.6202 2.1159C7.68095 -3.84132 5.08379 -5.95618 5.9141 -9.05494C6.62524 -11.709 7.96031 -12.2647 10.2819 -10.8755C12.12 -9.77549 18.9168 -6.28036 25.3834 -3.10871C39.4966 3.81234 40.7411 4.9351 37.1319 7.49101C34.9448 9.04227 31.1984 7.8899 19.6202 2.1159ZM-5.08789 3.04466C-8.31077 2.1811 -11.0256 0.207635 -11.118 -1.34249C-11.2334 -3.25353 -8.85094 -3.50644 -3.70219 -2.12683C1.44656 -0.747231 3.38336 0.663011 2.32791 2.26032C1.47286 3.55659 -1.86501 3.90823 -5.08789 3.04466ZM-8.30812 14.376C-13.3183 13.0335 -15.2182 11.6265 -14.1665 10.0348C-11.2463 5.60704 0.991543 9.3163 -0.324871 14.2292C-0.639148 15.4021 -4.2309 15.4685 -8.30812 14.376ZM-16.1941 -40.9479C-18.2709 -41.5044 -22.7793 -40.2182 -26.2141 -38.09C-29.6489 -35.9618 -33.6918 -34.5508 -35.1999 -34.9549C-36.7079 -35.359 -38.317 -34.2936 -38.7742 -32.587C-40.1028 -27.6286 -34.7928 -27.6535 -26.5655 -32.6413C-22.3805 -35.1782 -17.735 -36.9266 -16.2414 -36.5264C-14.7479 -36.1262 -13.2759 -36.7295 -12.9711 -37.8672C-12.6662 -39.0049 -14.1172 -40.3914 -16.1941 -40.9479Z" fill="#F5F5F5"/>
</g>
<path d="M57.6352 115.098C57.6352 115.91 57.3552 116.587 56.7952 117.128C56.2445 117.66 55.3999 117.926 54.2612 117.926H52.3852V122H51.1112V112.242H54.2612C55.3625 112.242 56.1979 112.508 56.7672 113.04C57.3459 113.572 57.6352 114.258 57.6352 115.098ZM54.2612 116.876C54.9705 116.876 55.4932 116.722 55.8292 116.414C56.1652 116.106 56.3332 115.667 56.3332 115.098C56.3332 113.894 55.6425 113.292 54.2612 113.292H52.3852V116.876H54.2612ZM58.7426 118.136C58.7426 117.352 58.9013 116.666 59.2186 116.078C59.536 115.481 59.97 115.019 60.5206 114.692C61.0806 114.365 61.7013 114.202 62.3826 114.202C63.0546 114.202 63.638 114.347 64.1326 114.636C64.6273 114.925 64.996 115.289 65.2386 115.728V114.328H66.5266V122H65.2386V120.572C64.9866 121.02 64.6086 121.393 64.1046 121.692C63.61 121.981 63.0313 122.126 62.3686 122.126C61.6873 122.126 61.0713 121.958 60.5206 121.622C59.97 121.286 59.536 120.815 59.2186 120.208C58.9013 119.601 58.7426 118.911 58.7426 118.136ZM65.2386 118.15C65.2386 117.571 65.122 117.067 64.8886 116.638C64.6553 116.209 64.338 115.882 63.9366 115.658C63.5446 115.425 63.1106 115.308 62.6346 115.308C62.1586 115.308 61.7246 115.42 61.3326 115.644C60.9406 115.868 60.628 116.195 60.3946 116.624C60.1613 117.053 60.0446 117.557 60.0446 118.136C60.0446 118.724 60.1613 119.237 60.3946 119.676C60.628 120.105 60.9406 120.437 61.3326 120.67C61.7246 120.894 62.1586 121.006 62.6346 121.006C63.1106 121.006 63.5446 120.894 63.9366 120.67C64.338 120.437 64.6553 120.105 64.8886 119.676C65.122 119.237 65.2386 118.729 65.2386 118.15ZM69.9536 115.742C70.2056 115.303 70.5789 114.939 71.0736 114.65C71.5776 114.351 72.1609 114.202 72.8236 114.202C73.5049 114.202 74.1209 114.365 74.6716 114.692C75.2316 115.019 75.6702 115.481 75.9876 116.078C76.3049 116.666 76.4636 117.352 76.4636 118.136C76.4636 118.911 76.3049 119.601 75.9876 120.208C75.6702 120.815 75.2316 121.286 74.6716 121.622C74.1209 121.958 73.5049 122.126 72.8236 122.126C72.1702 122.126 71.5916 121.981 71.0876 121.692C70.5929 121.393 70.2149 121.025 69.9536 120.586V125.64H68.6796V114.328H69.9536V115.742ZM75.1616 118.136C75.1616 117.557 75.0449 117.053 74.8116 116.624C74.5782 116.195 74.2609 115.868 73.8596 115.644C73.4676 115.42 73.0336 115.308 72.5576 115.308C72.0909 115.308 71.6569 115.425 71.2556 115.658C70.8636 115.882 70.5462 116.213 70.3036 116.652C70.0702 117.081 69.9536 117.581 69.9536 118.15C69.9536 118.729 70.0702 119.237 70.3036 119.676C70.5462 120.105 70.8636 120.437 71.2556 120.67C71.6569 120.894 72.0909 121.006 72.5576 121.006C73.0336 121.006 73.4676 120.894 73.8596 120.67C74.2609 120.437 74.5782 120.105 74.8116 119.676C75.0449 119.237 75.1616 118.724 75.1616 118.136ZM85.1405 117.87C85.1405 118.113 85.1265 118.369 85.0985 118.64H78.9665C79.0132 119.396 79.2698 119.989 79.7365 120.418C80.2125 120.838 80.7865 121.048 81.4585 121.048C82.0092 121.048 82.4665 120.922 82.8305 120.67C83.2038 120.409 83.4652 120.063 83.6145 119.634H84.9865C84.7812 120.371 84.3705 120.973 83.7545 121.44C83.1385 121.897 82.3732 122.126 81.4585 122.126C80.7305 122.126 80.0772 121.963 79.4985 121.636C78.9292 121.309 78.4812 120.847 78.1545 120.25C77.8278 119.643 77.6645 118.943 77.6645 118.15C77.6645 117.357 77.8232 116.661 78.1405 116.064C78.4578 115.467 78.9012 115.009 79.4705 114.692C80.0492 114.365 80.7118 114.202 81.4585 114.202C82.1865 114.202 82.8305 114.361 83.3905 114.678C83.9505 114.995 84.3798 115.434 84.6785 115.994C84.9865 116.545 85.1405 117.17 85.1405 117.87ZM83.8245 117.604C83.8245 117.119 83.7172 116.703 83.5025 116.358C83.2878 116.003 82.9938 115.737 82.6205 115.56C82.2565 115.373 81.8505 115.28 81.4025 115.28C80.7585 115.28 80.2078 115.485 79.7505 115.896C79.3025 116.307 79.0458 116.876 78.9805 117.604H83.8245ZM88.0961 115.574C88.3201 115.135 88.6375 114.795 89.0481 114.552C89.4681 114.309 89.9768 114.188 90.5741 114.188V115.504H90.2381C88.8101 115.504 88.0961 116.279 88.0961 117.828V122H86.8221V114.328H88.0961V115.574Z" fill="white"/>
<defs>
<filter id="filter0_d_81_592" x="0" y="0" width="141" height="141" filterUnits="userSpaceOnUse" color-interpolation-filters="sRGB">
<feFlood flood-opacity="0" result="BackgroundImageFix"/>
<feColorMatrix in="SourceAlpha" type="matrix" values="0 0 0 0 0 0 0 0 0 0 0 0 0 0 0 0 0 0 127 0" result="hardAlpha"/>
<feOffset dy="4"/>
<feGaussianBlur stdDeviation="2"/>
<feComposite in2="hardAlpha" operator="out"/>
<feColorMatrix type="matrix" values="0 0 0 0 0 0 0 0 0 0 0 0 0 0 0 0 0 0 0.25 0"/>
<feBlend mode="normal" in2="BackgroundImageFix" result="effect1_dropShadow_81_592"/>
<feBlend mode="normal" in="SourceGraphic" in2="effect1_dropShadow_81_592" result="shape"/>
</filter>
</defs>
</svg>
