<svg width="98" height="91" viewBox="0 0 98 91" fill="none" xmlns="http://www.w3.org/2000/svg">
<mask id="mask0_81_431" style="mask-type:alpha" maskUnits="userSpaceOnUse" x="2" y="7" width="89" height="77">
<path d="M84.4957 17.6499L31.1988 8.02531L3.08319 58.0035L16.0568 72.0509L36.9861 79.4207L67.0345 82.8159L69.3358 70.4703L85.2904 66.817L89.931 36.3472L84.4957 17.6499Z" fill="#F5F5F5" stroke="black" stroke-width="1.70182"/>
</mask>
<g mask="url(#mask0_81_431)">
<path fill-rule="evenodd" clip-rule="evenodd" d="M96.1826 -25.0269C91.9685 -22.7662 90.6225 -20.7149 88.7382 -13.6826C86.6566 -5.91388 85.7559 -4.76161 79.2605 -1.55478C71.4263 2.3152 66.5332 2.51402 71.5348 -1.23932C73.1984 -2.49022 75.3192 -3.8036 76.245 -4.16162C77.1708 -4.51964 77.1885 -5.59843 76.2816 -6.56025C75.2831 -7.62063 71.2158 -6.37426 65.9283 -3.38819C57.7733 1.21863 52.7604 2.23278 53.5982 -0.893774C53.7982 -1.64007 56.289 -3.49915 59.1325 -5.02412C62.5808 -6.87329 63.903 -8.49403 63.1004 -9.88425C62.299 -11.2724 60.302 -11.1116 57.1086 -9.39845C52.2772 -6.80637 48.1126 -6.72245 48.7848 -9.23093C48.9847 -9.97723 51.4755 -11.8363 54.319 -13.3613C57.7673 -15.2104 59.0896 -16.8312 58.2869 -18.2214C57.4855 -19.6095 55.4885 -19.4487 52.2951 -17.7356C47.4637 -15.1435 43.2991 -15.0596 43.9713 -17.5681C44.1713 -18.3144 46.6621 -20.1735 49.5055 -21.6984C55.7857 -25.0686 54.6768 -29.8197 48.3654 -26.583C41.2333 -22.9266 42.5785 -28.6639 49.8761 -33.03C59.1946 -38.6059 57.7096 -42.9204 48.2778 -37.6709C41.2929 -33.7812 37.2043 -26.4851 40.2176 -23.2851C40.972 -22.4839 41.2866 -20.6994 40.9162 -19.317C40.2145 -16.6983 52.6182 5.58447 55.1563 6.26455C55.9552 6.47861 58.0163 5.84164 59.7359 4.84886C61.4554 3.85609 65.351 3.71068 68.3905 4.52509C72.7318 5.68835 75.812 4.89102 82.7262 0.811541C90.7725 -3.9354 91.7277 -5.11358 93.8019 -12.8544C95.0501 -17.513 96.9337 -21.5838 97.9876 -21.9004C99.0415 -22.2171 100.224 -23.6709 100.615 -25.1306C101.184 -27.2545 100.296 -27.2335 96.1826 -25.0269ZM75.9645 60.2909C75.2101 59.4898 75.2359 56.4346 76.0222 53.5004C77.0762 49.5667 76.3381 46.3051 73.2102 41.0799C68.2016 32.7081 64.6375 33.0234 69.2545 41.4295C71.3161 45.1832 71.9408 49.0064 71.0414 52.3631C70.1983 55.5094 70.7607 59.7493 72.4798 63.2227C75.1767 68.6688 75.3468 68.7638 76.3185 65.3348C76.8788 63.3619 76.7188 61.0921 75.9645 60.2909ZM55.6421 75.5896C53.2633 71.7509 50.5181 70.2789 39.3658 66.859C25.0906 62.4825 21.0616 58.2862 33.4235 60.6701L40.8136 62.0935L31.3899 45.6604C23.6128 32.0963 22.5248 29.1673 25.1624 28.8909C27.4703 28.6478 29.9539 31.2672 34.0859 38.3012C37.2358 43.6608 40.4868 47.6574 41.3121 47.1809C42.1375 46.7044 39.1736 39.9534 34.7239 32.1788C28.3472 21.0355 27.1763 17.7319 29.1856 16.5718C31.1949 15.4118 33.4897 18.111 40.022 29.3242C44.5782 37.1484 48.9175 42.9747 49.6646 42.2711C50.4095 41.5686 48.0535 35.9284 44.4288 29.7368C37.9793 18.7273 36.8479 13.6918 41.0775 14.8251C42.238 15.136 46.0919 20.4923 49.6395 26.7284C53.1892 32.9633 56.8879 37.8269 57.8613 37.5345C58.8347 37.2421 57.3186 32.9123 54.4937 27.911C50.487 20.8172 49.9113 18.5011 51.8705 17.37C53.8318 16.2376 55.4447 17.7075 59.2145 24.0613C65.519 34.6849 68.3903 33.023 62.3402 22.2525C57.9353 14.409 52.0372 10.4289 49.0255 13.2654C48.2999 13.9484 46.2858 13.6995 44.5493 12.7109C41.7443 11.1136 38.368 11.2273 28.6691 13.2392C27.1302 13.558 25.272 15.9425 24.5386 18.535C23.8068 21.1279 22.134 24.8394 20.8225 26.7819C18.7674 29.829 19.4843 32.1441 26.0259 43.5924C31.9524 53.9632 32.8867 56.6766 30.2911 55.9811C23.6484 54.2012 19.4055 59.4563 22.7745 65.294C24.1872 67.7409 28.0874 69.4854 38.192 72.1929C45.9312 74.2666 52.2919 76.8096 53.0589 78.1357C53.7937 79.4108 55.3205 80.3996 56.4503 80.3323C57.6788 80.258 57.353 78.3508 55.6421 75.5896ZM88.26 -46.53C86.8003 -46.9212 84.9501 -46.6241 84.1489 -45.8698C83.3477 -45.1154 79.4887 -45.3566 75.5748 -46.4053C67.428 -48.5883 58.0503 -45.7239 60.3004 -41.74C61.2577 -40.0458 62.3501 -39.9539 64.3901 -41.3999C66.0905 -42.604 69.8627 -42.6503 74.0824 -41.5197C79.3279 -40.1142 82.187 -40.4087 85.954 -42.7433C89.9215 -45.2022 90.3839 -45.961 88.26 -46.53ZM61.9629 40.776C61.2483 40.0172 60.0439 39.9816 59.2851 40.6962C58.5263 41.4108 58.4908 42.6152 59.2054 43.374C59.92 44.1328 61.1244 44.1684 61.8832 43.4538C62.642 42.7391 62.6775 41.5348 61.9629 40.776ZM68.6674 -14.7811C67.2586 -15.1585 66.3634 -14.6056 66.6801 -13.5517C66.9967 -12.4978 67.9508 -11.4493 68.8023 -11.2212C69.6538 -10.993 70.5474 -11.5464 70.7896 -12.4505C71.0319 -13.3547 70.0761 -14.4036 68.6674 -14.7811ZM53.6258 45.5894C52.9112 44.8306 51.7068 44.7951 50.948 45.5097C50.1892 46.2243 50.1537 47.4287 50.8683 48.1875C51.5829 48.9463 52.7873 48.9818 53.5461 48.2672C54.3048 47.5526 54.3404 46.3482 53.6258 45.5894ZM63.8539 -23.1182C62.4451 -23.4957 61.55 -22.9427 61.8666 -21.8889C62.1832 -20.835 63.1374 -19.7865 63.9889 -19.5584C64.8404 -19.3302 65.7339 -19.8836 65.9762 -20.7877C66.2184 -21.6918 65.2627 -22.7407 63.8539 -23.1182ZM45.2886 50.4029C44.574 49.6441 43.3696 49.6086 42.6108 50.3232C41.852 51.0378 41.8165 52.2422 42.5311 53.0009C43.2457 53.7597 44.4501 53.7953 45.2089 53.0807C45.9677 52.3661 46.0032 51.1617 45.2886 50.4029ZM59.0404 -31.4554C57.6317 -31.8328 56.7365 -31.2799 57.0531 -30.226C57.3698 -29.1722 58.3239 -28.1237 59.1754 -27.8955C60.0269 -27.6673 60.9205 -28.2208 61.1627 -29.1249C61.405 -30.029 60.4492 -31.0779 59.0404 -31.4554ZM36.7148 -21.1404C36.35 -24.1188 28.5421 -26.0805 15.5232 -26.4663C9.00982 -26.6576 4.59937 -27.517 3.88498 -28.7303C2.34428 -31.3507 -7.9978 -34.0267 -8.55455 -31.9489C-8.7968 -31.0448 -6.85474 -29.7316 -4.23941 -29.0308C-1.4186 -28.275 0.638546 -26.5891 0.817172 -24.8887C1.29526 -20.3278 -2.17549 -9.09745 -3.91959 -9.56478C-6.05985 -10.1383 -7.41588 -16.4725 -6.29491 -20.6561C-5.16116 -24.8873 -5.94699 -25.1172 -11.1973 -22.0859C-13.49 -20.7622 -16.4755 -19.9765 -17.8316 -20.3399C-19.1878 -20.7033 -20.5181 -20.177 -20.7876 -19.171C-21.081 -18.0762 -19.2418 -17.1024 -16.2177 -16.7502C-10.6326 -16.0994 -8.91265 -12.1095 -12.9785 -9.2313C-14.2816 -8.30665 -15.5679 -6.17591 -15.8368 -4.49493C-17.2831 4.57163 -18.5323 5.90009 -24.1838 4.38578C-27.5947 3.47182 -30.4774 1.36217 -31.7768 -1.17246C-33.9151 -5.34313 -39.6061 -8.11718 -40.3479 -5.34897C-40.5738 -4.50568 -39.4935 -3.00758 -37.9489 -2.01935C-36.4026 -1.03066 -34.2093 1.59373 -33.0718 3.81189C-31.3927 7.08606 -28.8668 8.41651 -19.6433 10.8879C-4.68938 14.8948 -1.62368 14.0989 0.268045 5.71727C1.08172 2.10856 2.17992 -1.08917 2.70636 -1.39034C3.23401 -1.68942 8.36875 0.530359 14.1172 3.54356C25.3453 9.42921 29.6998 9.39266 31.3062 3.39762C32.3976 -0.675785 30.0687 -3.18851 20.3728 -8.4011L11.903 -12.9557L22.2918 -12.5646C34.4373 -12.1081 37.5892 -13.982 36.7148 -21.1404ZM18.7687 -16.5778C12.7023 -16.8854 6.805 -17.3574 5.66733 -17.6287C2.50383 -18.3813 4.43996 -22.8256 7.95554 -22.8808C17.2689 -23.0263 31.1083 -21.4023 32.4211 -20.0093C35.0751 -17.191 30.3147 -15.9947 18.7687 -16.5778ZM12.4129 -1.49744C2.92526 -6.23138 0.861417 -7.91197 1.52123 -10.3744C2.08634 -12.4834 3.14726 -12.9251 4.99212 -11.8211C6.45279 -10.947 11.8539 -8.16958 16.9927 -5.64921C28.2078 -0.149345 29.1968 0.742861 26.3287 2.77393C24.5907 4.00666 21.6136 3.09091 12.4129 -1.49744ZM-7.22158 -0.759386C-9.78266 -1.44563 -11.94 -3.01385 -12.0134 -4.24567C-12.1051 -5.76428 -10.2119 -5.96527 -6.12042 -4.86896C-2.02894 -3.77265 -0.489851 -2.65198 -1.32857 -1.38267C-2.00803 -0.35258 -4.6605 -0.0731463 -7.22158 -0.759386ZM-9.78056 8.24511C-13.7619 7.17831 -15.2717 6.0602 -14.436 4.79537C-12.1154 1.27682 -2.39052 4.22441 -3.43661 8.1285C-3.68636 9.06055 -6.54058 9.11327 -9.78056 8.24511ZM-16.0472 -35.7184C-17.6976 -36.1606 -21.2802 -35.1385 -24.0097 -33.4473C-26.7391 -31.7561 -29.9519 -30.6349 -31.1503 -30.956C-32.3486 -31.2771 -33.6273 -30.4305 -33.9907 -29.0743C-35.0465 -25.1341 -30.8268 -25.1539 -24.2889 -29.1175C-20.9633 -31.1335 -17.2717 -32.5228 -16.0848 -32.2048C-14.898 -31.8868 -13.7283 -32.3662 -13.486 -33.2703C-13.2438 -34.1744 -14.3968 -35.2762 -16.0472 -35.7184Z" fill="#F5F5F5"/>
</g>
</svg>
