<svg width="79" height="79" viewBox="0 0 79 79" fill="none" xmlns="http://www.w3.org/2000/svg">
<mask id="mask0_81_444" style="mask-type:alpha" maskUnits="userSpaceOnUse" x="-1" y="0" width="79" height="77">
<path d="M12.3227 72.9327L63.0497 75.5456L76.7335 44.5249L69.3853 24.4851L57.3056 1.83587L32.1419 4.35894L9.40022 12.3525L0.829341 21.7922L1.61265 38.0287L6.7872 63.0796L12.3227 72.9327Z" fill="#F5F5F5" stroke="black" stroke-width="1.91241"/>
</mask>
<g mask="url(#mask0_81_444)">
<path fill-rule="evenodd" clip-rule="evenodd" d="M11.2593 56.5496C14.9941 52.6856 15.7313 50.0289 15.3371 41.8572C14.9016 32.8296 15.4705 31.2877 21.3224 25.6291C28.3797 18.8019 33.548 16.9117 29.4821 22.643C28.1306 24.552 26.3112 26.6846 25.4432 27.3851C24.5752 28.0856 24.926 29.2462 26.2263 29.9647C27.6584 30.7572 31.5838 28.029 36.2188 23.0207C43.3668 15.295 48.3838 12.4911 48.559 16.1243C48.6009 16.9915 46.5726 19.835 44.0523 22.4418C40.9959 25.6028 40.1365 27.7906 41.4721 29.0032C42.8056 30.214 44.8876 29.3573 47.7179 26.4292C51.9997 21.999 56.4278 20.4815 56.5684 23.3964C56.6102 24.2637 54.582 27.1071 52.0617 29.7139C49.0053 32.875 48.1459 35.0627 49.4814 36.2754C50.815 37.4862 52.897 36.6294 55.7272 33.7014C60.009 29.2711 64.4371 27.7536 64.5778 30.6686C64.6196 31.5358 62.5913 34.3792 60.0711 36.986C54.5055 42.7457 57.321 47.45 62.9657 41.8225C69.3449 35.4645 69.872 42.0656 63.5591 49.2399C55.4982 58.4016 58.5664 62.5098 66.8605 53.6585C73.0023 47.1013 74.8766 37.8915 70.5547 35.5C69.4728 34.9012 68.5243 33.0993 68.4468 31.4928C68.3 28.4499 47.387 8.85547 44.4377 8.99776C43.5093 9.04254 41.5219 10.4308 40.022 12.0827C38.5221 13.7347 34.4029 15.2258 30.871 15.3962C25.8262 15.6395 22.8032 17.5487 16.8022 24.2848C9.81863 32.1233 9.20024 33.7116 9.63419 42.7067C9.89536 48.1201 9.2751 53.1224 8.25583 53.8225C7.23656 54.5227 6.46959 56.4839 6.55142 58.1801C6.67048 60.6481 7.61394 60.3211 11.2593 56.5496ZM3.64815 -41.6868C4.73008 -41.088 5.74983 -37.8096 5.91432 -34.3999C6.13485 -29.8288 8.04292 -26.5913 13.1816 -22.0718C21.4116 -14.8295 25.1178 -16.3887 17.295 -23.802C13.8019 -27.1123 11.8227 -30.9897 11.6346 -34.8903C11.4582 -38.5464 9.40287 -42.8911 6.37237 -46.0189C1.61918 -50.9227 1.40457 -50.966 1.54023 -46.9633C1.61689 -44.6599 2.56621 -42.2856 3.64815 -41.6868ZM20.1521 -65.0259C24.0139 -61.7333 27.4563 -61.0991 40.5637 -61.2623C57.341 -61.4724 63.0914 -58.3629 49.0447 -56.6762L40.648 -55.6661L56.3666 -41.3103C69.3393 -29.4604 71.5078 -26.6988 68.7799 -25.4988C66.3933 -24.4474 62.8375 -26.3992 56.0042 -32.5104C50.7958 -37.1663 45.9466 -40.3289 45.2267 -39.536C44.5067 -38.7431 49.993 -32.5344 57.4202 -25.7396C68.0645 -16.0003 70.45 -12.8663 68.6974 -10.936C66.9449 -9.00574 63.5637 -11.1076 52.7289 -20.8684C45.1706 -27.6798 38.5295 -32.4275 37.9713 -31.4183C37.4148 -30.4112 41.8697 -25.1828 47.8714 -19.7993C58.5477 -10.2281 61.4847 -5.22707 56.5698 -4.98996C55.2212 -4.92489 49.2607 -9.33585 43.3263 -14.7934C37.39 -20.249 31.7645 -24.186 30.823 -23.5394C29.8816 -22.8928 32.9884 -18.7788 37.7261 -14.395C44.4458 -8.17688 45.8559 -5.89565 44.1469 -4.01346C42.4362 -2.12926 40.2062 -3.1494 33.9937 -8.65676C23.6048 -17.8647 21.1017 -15.1017 31.2687 -5.64952C38.6715 1.23448 46.348 3.47188 48.5987 -0.596158C49.1411 -1.57582 51.3818 -1.99983 53.5792 -1.53719C57.1286 -0.789406 60.7028 -2.0685 70.3927 -7.54656C71.9303 -8.41531 73.1014 -11.6041 72.9976 -14.63C72.8918 -17.6558 73.4096 -22.2012 74.1473 -24.7296C75.302 -28.695 73.7411 -30.9268 62.8159 -40.936C52.9182 -50.0029 50.9881 -52.5865 54.0043 -52.732C61.7234 -53.1044 64.4625 -60.1828 58.8559 -65.2752C56.5051 -67.4096 51.7332 -67.9395 39.9913 -67.373C30.9981 -66.9391 23.3192 -67.4801 22.0438 -68.6362C20.8203 -69.749 18.8473 -70.2837 17.6614 -69.8244C16.3721 -69.3238 17.3746 -67.3943 20.1521 -65.0259ZM27.1094 76.8459C28.8057 76.764 30.684 75.8118 31.2827 74.7299C31.8815 73.648 36.094 72.5831 40.6422 72.3637C50.1091 71.907 59.1629 65.6268 55.3892 62.1346C53.7839 60.6498 52.5834 60.9259 50.8958 63.1728C49.4889 65.0443 45.4678 66.387 40.5644 66.6236C34.469 66.9176 31.5102 68.213 28.2792 72.0028C24.8761 75.9944 24.6415 76.9649 27.1094 76.8459ZM25.3223 -25.6022C26.3472 -25.0352 27.6483 -25.41 28.2154 -26.4349C28.7824 -27.4598 28.4076 -28.7609 27.3827 -29.3279C26.3578 -29.895 25.0567 -29.5201 24.4897 -28.4953C23.9226 -27.4704 24.2974 -26.1693 25.3223 -25.6022ZM37.1931 36.1521C38.8301 36.0731 39.5986 35.1745 38.8984 34.1552C38.1983 33.1359 36.8178 32.341 35.8283 32.3887C34.8388 32.4364 34.0723 33.335 34.123 34.3856C34.1737 35.4362 35.5561 36.2311 37.1931 36.1521ZM32.5945 -33.6116C33.6193 -33.0445 34.9204 -33.4194 35.4875 -34.4442C36.0546 -35.4691 35.6797 -36.7702 34.6548 -37.3373C33.63 -37.9044 32.3289 -37.5295 31.7618 -36.5046C31.1947 -35.4797 31.5696 -34.1786 32.5945 -33.6116ZM45.2025 43.4242C46.8395 43.3453 47.6079 42.4466 46.9078 41.4273C46.2076 40.4081 44.8271 39.6131 43.8377 39.6608C42.8482 39.7086 42.0816 40.6071 42.1323 41.6577C42.183 42.7083 43.5654 43.5032 45.2025 43.4242ZM39.8666 -41.6209C40.8915 -41.0539 42.1926 -41.4287 42.7596 -42.4536C43.3267 -43.4785 42.9518 -44.7796 41.927 -45.3466C40.9021 -45.9137 39.601 -45.5389 39.0339 -44.514C38.4669 -43.4891 38.8417 -42.188 39.8666 -41.6209ZM53.2118 50.6964C54.8489 50.6174 55.6173 49.7187 54.9172 48.6995C54.217 47.6802 52.8365 46.8852 51.847 46.933C50.8575 46.9807 50.091 47.8793 50.1417 48.9299C50.1924 49.9805 51.5748 50.7753 53.2118 50.6964ZM73.5682 32.004C74.9796 35.0663 84.008 34.4891 98.0727 30.4389C105.109 28.4107 110.123 27.8184 111.304 28.872C113.851 31.1481 125.836 30.4665 125.72 28.052C125.669 27.0014 123.141 26.2618 120.101 26.4085C116.824 26.5666 114.044 25.4677 113.27 23.7091C111.195 18.992 111.059 5.78372 113.086 5.68594C115.573 5.56596 119.196 11.8799 119.43 16.7413C119.667 21.6581 120.587 21.6348 125.167 16.5909C127.167 14.3883 130.092 12.524 131.668 12.448C133.244 12.372 134.487 11.3528 134.431 10.1837C134.37 8.91156 132.067 8.49992 128.71 9.15968C122.51 10.3778 119.302 6.69759 122.666 2.22353C123.744 0.78726 124.39 -1.93395 124.101 -3.8251C122.541 -14.0237 123.423 -15.8737 129.99 -16.1905C133.953 -16.3817 137.762 -15.1122 140.021 -12.8452C143.739 -9.11488 150.781 -8.0971 150.625 -11.3139C150.578 -12.2938 148.909 -13.5267 146.917 -14.0548C144.923 -14.5827 141.676 -16.6394 139.698 -18.6233C136.779 -21.5516 133.62 -22.1095 122.902 -21.5924C105.525 -20.7541 102.517 -18.8514 103.366 -9.23301C103.732 -5.0921 103.653 -1.29348 103.193 -0.790713C102.731 -0.289758 96.4744 -0.905057 89.2896 -2.15907C75.2559 -4.60863 70.6083 -3.07672 70.9444 3.88973C71.1727 8.62317 74.5265 10.5139 86.6898 12.7684L97.3153 14.739L86.0634 17.8819C72.9091 21.557 70.1784 24.643 73.5682 32.004ZM91.2095 20.969C97.8071 19.2185 104.28 17.702 105.591 17.6023C109.234 17.3232 108.686 22.7432 104.942 24.0074C95.0253 27.3559 79.6579 30.3623 77.7754 29.3215C73.969 27.2153 78.6534 24.3031 91.2095 20.969ZM92.8416 2.65144C104.618 4.46512 107.403 5.55613 107.541 8.41759C107.659 10.8684 106.675 11.7047 104.322 11.1557C102.459 10.721 95.7272 9.6002 89.3637 8.6646C75.4761 6.62347 74.1119 6.00767 76.485 2.85083C77.9224 0.935786 81.4223 0.895216 92.8416 2.65144ZM113.601 -4.86937C116.577 -5.01295 119.423 -4.07425 119.924 -2.78115C120.543 -1.18738 118.586 -0.323285 113.831 -0.0939147C109.077 0.135456 107.046 -0.536226 107.508 -2.18215C107.882 -3.51746 110.625 -4.7258 113.601 -4.86937ZM113.253 -15.3831C117.879 -15.6062 119.878 -14.9273 119.417 -13.2872C118.14 -8.72616 106.722 -8.54678 106.504 -13.0835C106.451 -14.1665 109.488 -15.2014 113.253 -15.3831ZM135.03 29.5175C136.948 29.425 140.432 27.1029 142.773 24.3574C145.114 21.6118 148.168 19.3105 149.561 19.2433C150.953 19.1762 152.032 17.8318 151.956 16.2559C151.735 11.6771 147.226 13.1449 141.588 19.628C138.72 22.9255 135.245 25.6779 133.866 25.7444C132.487 25.8109 131.4 26.725 131.45 27.7756C131.501 28.8262 133.113 29.61 135.03 29.5175Z" fill="#F5F5F5"/>
</g>
</svg>
