<svg width="65" height="84" viewBox="0 0 65 84" fill="none" xmlns="http://www.w3.org/2000/svg">
<mask id="mask0_81_463" style="mask-type:alpha" maskUnits="userSpaceOnUse" x="0" y="0" width="65" height="85">
<path d="M1.0918 11.8493L2.79361 80.7729L52.1463 83.3256L62.3572 67.1583L64.059 45.0347L47.0408 31.4202V16.1039L39.3826 1.63843L8.74997 5.04206L1.0918 11.8493Z" fill="#F5F5F5" stroke="black" stroke-width="1.70182"/>
</mask>
<g mask="url(#mask0_81_463)">
<path fill-rule="evenodd" clip-rule="evenodd" d="M-11.6719 -49.1915C-8.39758 -45.7062 -6.0678 -44.937 1.21257 -44.937C9.25534 -44.937 10.6015 -44.3652 15.3802 -38.9211C21.1459 -32.3555 22.6044 -27.6806 17.6844 -31.5403C16.0456 -32.8235 14.2281 -34.5321 13.6426 -35.3337C13.0572 -36.1352 12.0106 -35.8731 11.3162 -34.7482C10.5504 -33.5093 12.807 -29.9032 17.0599 -25.5686C23.6204 -18.8839 25.8974 -14.3043 22.6605 -14.3043C21.8879 -14.3043 19.4475 -16.2291 17.2386 -18.581C14.5599 -21.4332 12.6522 -22.2909 11.5171 -21.1558C10.3836 -20.0224 11.0559 -18.1351 13.5371 -15.4939C17.2913 -11.498 18.4503 -7.49706 15.8533 -7.49706C15.0807 -7.49706 12.6403 -9.42181 10.4313 -11.7737C7.75264 -14.626 5.84491 -15.4837 4.7098 -14.3486C3.57639 -13.2152 4.2486 -11.3278 6.72985 -8.68662C10.4841 -4.69076 11.643 -0.689793 9.04602 -0.689793C8.2734 -0.689793 5.833 -2.61455 3.62404 -4.96646C-1.25677 -10.1604 -5.55896 -7.85954 -0.798979 -2.60093C4.57876 3.34181 -1.31122 3.52731 -7.41734 -2.39161C-15.2151 -9.94937 -18.9982 -7.39835 -11.4864 0.35342C-5.92144 6.09364 2.1843 8.15454 4.49537 4.41565C5.07399 3.47965 6.71624 2.71384 8.14746 2.71384C10.8585 2.71384 29.1717 -15.0344 29.1717 -17.662C29.1717 -18.4891 28.023 -20.3151 26.619 -21.7191C25.215 -23.1231 24.0662 -26.8484 24.0662 -29.9951C24.0662 -34.4895 22.4989 -37.2584 16.7689 -42.8812C10.1012 -49.4247 8.71587 -50.0424 0.702023 -50.0424C-4.12092 -50.0424 -8.54054 -50.8083 -9.11915 -51.7443C-9.69777 -52.6803 -11.4081 -53.4461 -12.9193 -53.4461C-15.1181 -53.4461 -14.8679 -52.5935 -11.6719 -49.1915ZM75.9716 -51.7443C75.393 -50.8083 72.4352 -50.0424 69.3975 -50.0424C65.3251 -50.0424 62.3656 -48.4853 58.1281 -44.1116C51.3378 -37.1069 52.5648 -33.7459 59.4895 -40.3812C62.5817 -43.3441 66.113 -44.937 69.5881 -44.937C72.8454 -44.937 76.7953 -46.5775 79.7054 -49.1371C84.268 -53.1517 84.3156 -53.3406 80.752 -53.3916C78.7013 -53.4222 76.5502 -52.6803 75.9716 -51.7443ZM96.0088 -36.0739C92.9166 -32.7826 92.2052 -29.75 91.7883 -18.0926C91.2556 -3.17104 88.2451 1.80677 87.3482 -10.7509L86.8105 -18.2576L73.3763 -4.90179C62.2873 6.12087 59.7397 7.9299 58.7901 5.45376C57.9579 3.28735 59.8452 0.210464 65.5701 -5.60123C69.9319 -10.0311 72.9509 -14.2056 72.277 -14.8795C71.6031 -15.5534 65.8492 -10.9432 59.4912 -4.6329C50.378 4.41055 47.49 6.39656 45.8495 4.75602C44.2089 3.11547 46.2222 0.200256 55.3626 -9.01167C61.741 -15.4377 66.2457 -21.1371 65.3727 -21.6766C64.5014 -22.2144 59.6631 -18.4789 54.6206 -13.3751C45.6555 -4.29594 41.0844 -1.89979 41.0844 -6.27856C41.0844 -7.48004 45.2607 -12.5889 50.3661 -17.6297C55.4698 -22.6721 59.2104 -27.5036 58.6761 -28.3681C58.1417 -29.2326 54.3518 -26.6476 50.2521 -22.6245C44.437 -16.9183 42.3489 -15.7628 40.7491 -17.3625C39.1477 -18.9639 40.1501 -20.9023 45.3117 -26.1881C53.9416 -35.0273 51.5931 -37.3707 42.7556 -28.7391C36.3193 -22.4543 34.0014 -15.727 37.5208 -13.5521C38.3683 -13.028 38.6491 -11.0181 38.1437 -9.08485C37.3268 -5.96202 38.3104 -2.73027 42.7641 6.11747C43.4703 7.52147 46.2545 8.69912 48.9485 8.73656C51.6425 8.7723 55.6604 9.4275 57.8762 10.1916C61.3513 11.388 63.402 10.0963 72.7671 0.814613C81.2506 -7.59406 83.6298 -9.19887 83.6298 -6.5117C83.6298 0.36533 89.804 3.10355 94.5708 -1.66153C96.5687 -3.65946 97.2443 -7.87826 97.2443 -18.3393C97.2443 -26.3515 98.0544 -33.1536 99.1367 -34.2377C100.178 -35.2775 100.738 -37.0082 100.381 -38.0821C99.991 -39.2495 98.2331 -38.4412 96.0088 -36.0739ZM-30.3918 -35.9735C-30.3918 -34.4623 -29.626 -32.752 -28.69 -32.1734C-27.754 -31.5948 -26.9882 -27.8048 -26.9882 -23.7528C-26.9882 -15.3186 -21.7943 -7.00183 -18.5285 -10.2063C-17.1398 -11.5695 -17.3338 -12.6485 -19.2586 -14.2448C-20.8617 -15.5756 -21.8828 -19.2072 -21.8828 -23.5758C-21.8828 -29.0063 -22.9073 -31.6918 -26.1373 -34.7261C-29.5392 -37.9221 -30.3918 -38.1723 -30.3918 -35.9735ZM60.7455 -33.1689C60.1975 -32.2823 60.4749 -31.1097 61.3615 -30.5618C62.2482 -30.0138 63.4207 -30.2912 63.9687 -31.1778C64.5167 -32.0645 64.2393 -33.237 63.3527 -33.785C62.466 -34.333 61.2935 -34.0556 60.7455 -33.1689ZM5.34628 -25.2657C5.34628 -23.8073 6.11209 -23.0857 7.04809 -23.6643C7.98409 -24.2429 8.74991 -25.4359 8.74991 -26.3174C8.74991 -27.199 7.98409 -27.9188 7.04809 -27.9188C6.11209 -27.9188 5.34628 -26.7242 5.34628 -25.2657ZM67.5527 -26.3617C67.0048 -25.475 67.2822 -24.3025 68.1688 -23.7545C69.0554 -23.2065 70.228 -23.4839 70.776 -24.3706C71.324 -25.2572 71.0466 -26.4298 70.1599 -26.9777C69.2733 -27.5257 68.1007 -27.2483 67.5527 -26.3617ZM-1.46099 -18.4585C-1.46099 -17 -0.695168 -16.2784 0.240831 -16.857C1.17683 -17.4357 1.94265 -18.6286 1.94265 -19.5102C1.94265 -20.3917 1.17683 -21.1116 0.240831 -21.1116C-0.695168 -21.1116 -1.46099 -19.9169 -1.46099 -18.4585ZM74.36 -19.5544C73.812 -18.6678 74.0894 -17.4952 74.9761 -16.9472C75.8627 -16.3993 77.0352 -16.6767 77.5832 -17.5633C78.1312 -18.4499 77.8538 -19.6225 76.9672 -20.1705C76.0805 -20.7185 74.908 -20.4411 74.36 -19.5544ZM-8.26825 -11.6512C-8.26825 -10.1927 -7.50243 -9.47116 -6.56643 -10.0498C-5.63043 -10.6284 -4.86461 -11.8214 -4.86461 -12.7029C-4.86461 -13.5844 -5.63043 -14.3043 -6.56643 -14.3043C-7.50243 -14.3043 -8.26825 -13.1096 -8.26825 -11.6512ZM7.47355 7.24407C4.69108 8.36726 4.81701 16.4169 7.81391 29.092C9.31491 35.4329 9.62634 39.9155 8.63929 40.9196C6.50691 43.086 6.59881 53.7683 8.74991 53.7683C9.68591 53.7683 10.4517 51.5525 10.4517 48.8449C10.4517 45.9246 11.5477 43.5012 13.144 42.8886C17.4258 41.2463 29.1717 41.6922 29.1717 43.4978C29.1717 45.7136 23.4042 48.6628 19.0731 48.6628C14.6926 48.6628 14.6739 49.4814 18.9608 53.7683C20.8328 55.6403 22.3644 58.3207 22.3644 59.7246C22.3644 61.1286 23.217 62.2774 24.2585 62.2774C25.392 62.2774 25.8566 60.2488 25.4141 57.2366C24.5972 51.6734 28.006 48.9794 31.8384 52.1618C33.0689 53.1812 35.4599 53.8721 37.1532 53.6968C46.2851 52.7472 47.8917 53.61 47.8917 59.4609C47.8917 62.9921 46.6 66.3226 44.488 68.2337C41.0129 71.3787 39.8063 77.5937 42.6722 77.5937C43.5452 77.5937 44.7127 76.1625 45.2675 74.4147C45.8223 72.6653 47.7896 69.8675 49.6377 68.1946C52.3657 65.7253 52.9971 62.9411 52.9971 53.3922C52.9971 37.9108 51.4348 35.1555 42.8492 35.4976C39.1528 35.6457 35.7798 35.4125 35.3527 34.982C34.9272 34.5497 35.7424 29.0154 37.1651 22.6829C39.9442 10.3141 38.7818 6.11747 32.5753 6.11747C28.3582 6.11747 26.5339 9.01736 24.0084 19.732L21.8011 29.092L19.4901 18.956C16.7876 7.10622 14.1617 4.54669 7.47355 7.24407ZM16.5255 23.3977C17.7985 29.337 18.8689 35.1555 18.9012 36.3247C18.9931 39.5752 14.1991 38.8553 13.2359 35.4738C10.6849 26.5154 8.67162 12.7273 9.6774 11.0987C11.7128 7.80566 14.1004 12.0942 16.5255 23.3977ZM32.737 25.6339C30.6199 36.0235 29.5308 38.452 26.9815 38.452C24.798 38.452 24.0969 37.5415 24.6857 35.4738C25.152 33.8366 26.4369 27.9007 27.5414 22.2847C29.9511 10.0282 30.557 8.84207 33.2612 11.0868C34.9017 12.4465 34.7877 15.5591 32.737 25.6339ZM38.5317 44.4083C38.5317 47.0597 37.5753 49.5495 36.4044 49.9392C34.9613 50.4208 34.2771 48.6441 34.2771 44.4083C34.2771 40.1725 34.9613 38.3958 36.4044 38.8774C37.5753 39.2671 38.5317 41.7569 38.5317 44.4083ZM47.8917 44.5496C47.8917 48.6714 47.2024 50.4191 45.7644 49.9392C41.7651 48.6084 42.0953 38.452 46.1371 38.452C47.102 38.452 47.8917 41.1953 47.8917 44.5496ZM7.04809 61.9813C7.04809 63.6899 8.96264 66.8859 11.3026 69.0846C13.6426 71.2834 15.5572 74.0965 15.5572 75.3371C15.5572 76.5777 16.7059 77.5937 18.1099 77.5937C22.1891 77.5937 21.0779 73.523 15.5572 68.2337C12.7492 65.5432 10.4517 62.3369 10.4517 61.1082C10.4517 59.8795 9.68591 58.8737 8.74991 58.8737C7.81391 58.8737 7.04809 60.2726 7.04809 61.9813Z" fill="#F5F5F5"/>
</g>
</svg>
